<svg width="366" height="132" viewBox="0 0 366 132" fill="none" xmlns="http://www.w3.org/2000/svg">
<g filter="url(#filter0_d_114_636)">
<rect x="37.627" y="34.1794" width="291.373" height="57.1682" rx="7.37654" fill="#03CA00" shape-rendering="crispEdges"/>
<rect x="38.088" y="34.6405" width="290.451" height="56.2461" rx="6.9155" stroke="#E7EBFF" stroke-width="0.922067" shape-rendering="crispEdges"/>
<path d="M143.508 67.7277C143.508 68.2334 143.921 68.6461 144.429 68.6461H145.481V71.2481C145.481 71.9072 146.011 72.4453 146.661 72.4453C147.314 72.4453 147.841 71.9094 147.841 71.2481V68.644H149.678V71.2459C149.678 71.9051 150.208 72.4432 150.858 72.4432C151.511 72.4432 152.038 71.9072 152.038 71.2459V68.644H153.091C153.598 68.644 154.011 68.2312 154.011 67.7255V59.1848H143.508V67.7277ZM151.225 54.7589L152.196 53.3542C152.252 53.2721 152.239 53.1619 152.163 53.1078C152.088 53.056 151.98 53.0819 151.924 53.164L150.916 54.6249C150.253 54.3634 149.514 54.2187 148.738 54.2187C147.962 54.2187 147.223 54.3634 146.56 54.6249L145.553 53.1662C145.496 53.0841 145.388 53.056 145.313 53.11C145.237 53.1619 145.224 53.2699 145.28 53.3564L146.251 54.7611C144.708 55.4786 143.627 56.8379 143.489 58.4263H153.992C153.849 56.8357 152.766 55.4764 151.225 54.7589ZM146.521 56.974C146.406 56.974 146.293 56.94 146.198 56.8761C146.102 56.8122 146.028 56.7214 145.984 56.6152C145.94 56.509 145.928 56.3921 145.951 56.2793C145.973 56.1665 146.028 56.0629 146.11 55.9816C146.191 55.9003 146.295 55.845 146.407 55.8226C146.52 55.8001 146.637 55.8116 146.743 55.8556C146.849 55.8996 146.94 55.9741 147.004 56.0697C147.068 56.1653 147.102 56.2777 147.102 56.3927C147.102 56.5468 147.04 56.6944 146.931 56.8033C146.822 56.9123 146.675 56.9736 146.521 56.974ZM151.024 56.974C150.91 56.974 150.797 56.94 150.702 56.8761C150.606 56.8122 150.531 56.7214 150.487 56.6152C150.443 56.509 150.432 56.3921 150.454 56.2793C150.477 56.1665 150.532 56.0629 150.613 55.9816C150.695 55.9003 150.798 55.845 150.911 55.8226C151.024 55.8001 151.141 55.8116 151.247 55.8556C151.353 55.8996 151.444 55.9741 151.508 56.0697C151.572 56.1653 151.606 56.2777 151.606 56.3927C151.605 56.5468 151.544 56.6944 151.435 56.8033C151.326 56.9123 151.179 56.9736 151.024 56.974ZM155.852 59.1503C155.2 59.1503 154.672 59.6862 154.672 60.3475V65.0241C154.672 65.6833 155.202 66.2214 155.852 66.2214C156.505 66.2214 157.032 65.6854 157.032 65.0241V60.3454C157.035 59.6841 156.507 59.1503 155.852 59.1503ZM141.619 59.1503C140.967 59.1503 140.439 59.6862 140.439 60.3475V65.0241C140.439 65.6833 140.969 66.2214 141.619 66.2214C142.272 66.2214 142.799 65.6854 142.799 65.0241V60.3454C142.799 59.6841 142.27 59.1503 141.619 59.1503Z" fill="white"/>
<path d="M170.755 69.7634H168.302L173.171 56.2828H175.587L180.455 69.7634H177.965L176.877 66.6468H171.843L170.755 69.7634ZM174.074 60.303L172.544 64.6552H176.195L174.646 60.303C174.535 59.9526 174.406 59.5469 174.369 59.2703C174.314 59.5285 174.203 59.9342 174.074 60.303ZM184.063 69.7634H181.814V60.6534H183.897L184.082 61.8336C184.653 60.9116 185.76 60.3768 186.996 60.3768C189.282 60.3768 190.463 61.7968 190.463 64.1573V69.7634H188.213V64.6921C188.213 63.1614 187.457 62.4238 186.295 62.4238C184.912 62.4238 184.063 63.3827 184.063 64.858V69.7634ZM196.417 70.0032C193.78 70.0032 192.138 68.0668 192.138 65.2453C192.138 62.4053 193.798 60.3768 196.546 60.3768C197.818 60.3768 198.943 60.9116 199.515 61.8152V56.0431H201.746V69.7634H199.681L199.533 68.3434C198.98 69.3946 197.8 70.0032 196.417 70.0032ZM196.915 67.9377C198.482 67.9377 199.496 66.8128 199.496 65.1715C199.496 63.5303 198.482 62.3869 196.915 62.3869C195.347 62.3869 194.388 63.5487 194.388 65.1715C194.388 66.7944 195.347 67.9377 196.915 67.9377ZM209.808 60.6165V62.7004H208.978C207.355 62.7004 206.341 63.5671 206.341 65.3375V69.7634H204.091V60.6718H206.212L206.341 61.9996C206.728 61.096 207.595 60.4874 208.812 60.4874C209.125 60.4874 209.439 60.5243 209.808 60.6165ZM210.49 65.19C210.49 62.35 212.537 60.3952 215.358 60.3952C218.18 60.3952 220.227 62.35 220.227 65.19C220.227 68.0299 218.18 69.9847 215.358 69.9847C212.537 69.9847 210.49 68.0299 210.49 65.19ZM212.739 65.19C212.739 66.8497 213.809 67.9746 215.358 67.9746C216.907 67.9746 217.977 66.8497 217.977 65.19C217.977 63.5303 216.907 62.4053 215.358 62.4053C213.809 62.4053 212.739 63.5303 212.739 65.19ZM223.135 58.8277C222.36 58.8277 221.752 58.2191 221.752 57.463C221.752 56.707 222.36 56.1168 223.135 56.1168C223.872 56.1168 224.481 56.707 224.481 57.463C224.481 58.2191 223.872 58.8277 223.135 58.8277ZM222.01 69.7634V60.6534H224.26V69.7634H222.01ZM230.328 70.0032C227.691 70.0032 226.049 68.0668 226.049 65.2453C226.049 62.4053 227.709 60.3768 230.457 60.3768C231.729 60.3768 232.854 60.9116 233.426 61.8152V56.0431H235.657V69.7634H233.592L233.444 68.3434C232.891 69.3946 231.711 70.0032 230.328 70.0032ZM230.826 67.9377C232.393 67.9377 233.408 66.8128 233.408 65.1715C233.408 63.5303 232.393 62.3869 230.826 62.3869C229.258 62.3869 228.299 63.5487 228.299 65.1715C228.299 66.7944 229.258 67.9377 230.826 67.9377Z" fill="white"/>
</g>
<defs>
<filter id="filter0_d_114_636" x="0.744263" y="0.985022" width="365.139" height="130.934" filterUnits="userSpaceOnUse" color-interpolation-filters="sRGB">
<feFlood flood-opacity="0" result="BackgroundImageFix"/>
<feColorMatrix in="SourceAlpha" type="matrix" values="0 0 0 0 0 0 0 0 0 0 0 0 0 0 0 0 0 0 127 0" result="hardAlpha"/>
<feOffset dy="3.68827"/>
<feGaussianBlur stdDeviation="18.4413"/>
<feComposite in2="hardAlpha" operator="out"/>
<feColorMatrix type="matrix" values="0 0 0 0 0 0 0 0 0 0 0 0 0 0 0 0 0 0 0.1 0"/>
<feBlend mode="normal" in2="BackgroundImageFix" result="effect1_dropShadow_114_636"/>
<feBlend mode="normal" in="SourceGraphic" in2="effect1_dropShadow_114_636" result="shape"/>
</filter>
</defs>
</svg>
