<svg width="23" height="23" viewBox="0 0 23 23" fill="none" xmlns="http://www.w3.org/2000/svg">
<path d="M6.50821 16.7277C6.50821 17.2334 6.92098 17.6461 7.42883 17.6461H8.48129V20.2481C8.48129 20.9072 9.01076 21.4453 9.66125 21.4453C10.3139 21.4453 10.8412 20.9094 10.8412 20.2481V17.644H12.6781V20.2459C12.6781 20.9051 13.2076 21.4432 13.8581 21.4432C14.5107 21.4432 15.038 20.9072 15.038 20.2459V17.644H16.0905C16.5984 17.644 17.0111 17.2312 17.0111 16.7255V8.18485H6.50821V16.7277ZM14.2255 3.75893L15.1958 2.35421C15.252 2.27209 15.239 2.16188 15.1634 2.10785C15.0878 2.05598 14.9797 2.08192 14.9235 2.16404L13.9164 3.62494C13.253 3.36345 12.5139 3.21865 11.7381 3.21865C10.9622 3.21865 10.2231 3.36345 9.55967 3.62494L8.5526 2.1662C8.49642 2.08408 8.38836 2.05598 8.31272 2.11001C8.23708 2.16188 8.22412 2.26993 8.28031 2.35638L9.25064 3.76109C7.70762 4.47857 6.62707 5.8379 6.48876 7.4263H16.9917C16.849 5.83574 15.7663 4.47641 14.2255 3.75893ZM9.52077 5.97405C9.4058 5.97405 9.2934 5.93995 9.1978 5.87608C9.1022 5.8122 9.02769 5.72141 8.98369 5.61518C8.93969 5.50896 8.92818 5.39207 8.95061 5.2793C8.97304 5.16653 9.02841 5.06295 9.10971 4.98165C9.19101 4.90035 9.29459 4.84498 9.40736 4.82255C9.52013 4.80012 9.63702 4.81163 9.74324 4.85563C9.84947 4.89963 9.94026 4.97414 10.0041 5.06974C10.068 5.16534 10.1021 5.27774 10.1021 5.39271C10.1017 5.54677 10.0403 5.6944 9.9314 5.80334C9.82246 5.91227 9.67483 5.97365 9.52077 5.97405ZM14.0245 5.97405C13.9095 5.97405 13.7971 5.93995 13.7015 5.87608C13.6059 5.8122 13.5314 5.72141 13.4874 5.61518C13.4434 5.50896 13.4319 5.39207 13.4543 5.2793C13.4768 5.16653 13.5321 5.06295 13.6134 4.98165C13.6947 4.90035 13.7983 4.84498 13.9111 4.82255C14.0239 4.80012 14.1407 4.81163 14.247 4.85563C14.3532 4.89963 14.444 4.97414 14.5079 5.06974C14.5717 5.16534 14.6058 5.27774 14.6058 5.39271C14.6054 5.54677 14.5441 5.6944 14.4351 5.80334C14.3262 5.91227 14.1786 5.97365 14.0245 5.97405ZM18.8524 8.15027C18.1997 8.15027 17.6724 8.68622 17.6724 9.34752V14.0241C17.6724 14.6833 18.2019 15.2214 18.8524 15.2214C19.505 15.2214 20.0323 14.6854 20.0323 14.0241V9.34536C20.0345 8.68406 19.5072 8.15027 18.8524 8.15027ZM4.61941 8.15027C3.96676 8.15027 3.43945 8.68622 3.43945 9.34752V14.0241C3.43945 14.6833 3.96892 15.2214 4.61941 15.2214C5.27206 15.2214 5.79937 14.6854 5.79937 14.0241V9.34536C5.79937 8.68406 5.2699 8.15027 4.61941 8.15027Z" fill="white"/>
</svg>
