<svg width="41" height="41" viewBox="0 0 41 41" fill="none" xmlns="http://www.w3.org/2000/svg">
<rect x="0.0673828" y="0.0673523" width="40.6943" height="40.6943" rx="10.1736" fill="#189264"/>
<path d="M29.1347 20.4145C29.1347 25.2306 25.2306 29.1347 20.4145 29.1347C15.5985 29.1347 11.6943 25.2306 11.6943 20.4145C11.6943 15.5985 15.5985 11.6943 20.4145 11.6943M25.2591 20.4145C25.2591 23.0901 23.0901 25.2591 20.4145 25.2591C17.739 25.2591 15.57 23.0901 15.57 20.4145C15.57 17.739 17.739 15.57 20.4145 15.57M23.0867 17.8485L26.9226 18.2514L29.0019 15.3403L26.5067 14.5085L25.675 12.0133L22.7639 14.0927L23.0867 17.8485ZM23.0867 17.8485L20.4146 20.4145" stroke="white" stroke-width="1.45337" stroke-linecap="round" stroke-linejoin="round"/>
</svg>
