<svg width="68" height="67" viewBox="0 0 68 67" fill="none" xmlns="http://www.w3.org/2000/svg">
<rect x="0.828796" y="0.0224609" width="66.3423" height="66.3423" rx="13.0083" fill="#FFBB56"/>
<g clip-path="url(#clip0_54_134)">
<path d="M33.7398 21.5426C33.1878 21.5426 32.7398 21.0946 32.7398 20.5426V17.9332C32.7398 17.3812 33.1878 16.9332 33.7398 16.9332C34.2918 16.9332 34.7398 17.3812 34.7398 17.9332V20.5426C34.7398 21.0946 34.2918 21.5426 33.7398 21.5426Z" fill="white"/>
<path d="M42.5013 25.1719C42.2453 25.1719 41.9893 25.0746 41.7946 24.8786C41.4039 24.4879 41.4039 23.8546 41.7946 23.4639L43.6399 21.6186C44.0306 21.2279 44.664 21.2279 45.0546 21.6186C45.4453 22.0092 45.4453 22.6426 45.0546 23.0332L43.2093 24.8786C43.0133 25.0733 42.7573 25.1719 42.5013 25.1719Z" fill="white"/>
<path d="M48.74 33.9336H46.1307C45.5787 33.9336 45.1306 33.4856 45.1306 32.9336C45.1306 32.3816 45.5787 31.9336 46.1307 31.9336H48.74C49.292 31.9336 49.74 32.3816 49.74 32.9336C49.74 33.4856 49.292 33.9336 48.74 33.9336Z" fill="white"/>
<path d="M44.3466 44.5403C44.0906 44.5403 43.8346 44.443 43.6399 44.247L41.7946 42.4017C41.4039 42.011 41.4039 41.3776 41.7946 40.987C42.1853 40.5963 42.8186 40.5963 43.2093 40.987L45.0546 42.8323C45.4453 43.223 45.4453 43.8563 45.0546 44.247C44.8586 44.443 44.6026 44.5403 44.3466 44.5403Z" fill="white"/>
<path d="M23.133 44.5403C22.877 44.5403 22.621 44.443 22.4264 44.247C22.0357 43.8563 22.0357 43.223 22.4264 42.8323L24.2717 40.987C24.6624 40.5963 25.2957 40.5963 25.6864 40.987C26.0771 41.3776 26.0771 42.011 25.6864 42.4017L23.841 44.247C23.645 44.443 23.389 44.5403 23.133 44.5403Z" fill="white"/>
<path d="M21.349 33.9336H18.7396C18.1876 33.9336 17.7396 33.4856 17.7396 32.9336C17.7396 32.3816 18.1876 31.9336 18.7396 31.9336H21.349C21.901 31.9336 22.349 32.3816 22.349 32.9336C22.349 33.4856 21.901 33.9336 21.349 33.9336Z" fill="white"/>
<path d="M24.9784 25.1719C24.7224 25.1719 24.4664 25.0746 24.2717 24.8786L22.4264 23.0332C22.0357 22.6426 22.0357 22.0092 22.4264 21.6186C22.817 21.2279 23.4504 21.2279 23.841 21.6186L25.6864 23.4639C26.0771 23.8546 26.0771 24.4879 25.6864 24.8786C25.4891 25.0733 25.2344 25.1719 24.9784 25.1719Z" fill="white"/>
<path d="M37.7399 44.9336V46.6003C37.7399 47.8803 36.6865 48.9336 35.4065 48.9336H32.0732C30.9531 48.9336 29.7398 48.0803 29.7398 46.2136V44.9336H37.7399Z" fill="white"/>
<path d="M39.6199 25.6801C37.4332 23.9068 34.5532 23.2134 31.7398 23.8134C28.2064 24.5468 25.3397 27.4268 24.6064 30.9602C23.8597 34.5869 25.2197 38.1869 28.1264 40.387C28.9131 40.9736 29.4598 41.8803 29.6464 42.9337V42.947C29.6731 42.9337 29.7131 42.9337 29.7398 42.9337H37.7399C37.7665 42.9337 37.7799 42.9337 37.8065 42.947V42.9337C37.9932 41.9203 38.5932 40.987 39.5132 40.267C41.7666 38.4803 43.0733 35.8136 43.0733 32.9335C43.0733 30.1068 41.8199 27.4668 39.6199 25.6801ZM33.2398 32.6002H34.2398C35.8025 32.6002 37.0732 33.8709 37.0732 35.4336C37.0732 36.8243 36.0639 37.9789 34.7398 38.2163V39.9336C34.7398 40.4856 34.2918 40.9336 33.7398 40.9336C33.1878 40.9336 32.7398 40.4856 32.7398 39.9336V38.2669H31.4065C30.8545 38.2669 30.4065 37.8189 30.4065 37.2669C30.4065 36.7149 30.8545 36.2669 31.4065 36.2669H34.2398C34.6998 36.2669 35.0732 35.8936 35.0732 35.4336C35.0732 34.9736 34.6998 34.6002 34.2398 34.6002H33.2398C31.6771 34.6002 30.4065 33.3296 30.4065 31.7669C30.4065 30.3762 31.4158 29.2215 32.7398 28.9842V27.2668C32.7398 26.7148 33.1878 26.2668 33.7398 26.2668C34.2918 26.2668 34.7398 26.7148 34.7398 27.2668V28.9335H36.0732C36.6252 28.9335 37.0732 29.3815 37.0732 29.9335C37.0732 30.4855 36.6252 30.9335 36.0732 30.9335H33.2398C32.7798 30.9335 32.4065 31.3069 32.4065 31.7669C32.4065 32.2269 32.7798 32.6002 33.2398 32.6002Z" fill="white"/>
<path d="M29.6465 42.9336H29.7403C29.7135 42.9336 29.6733 42.9336 29.6465 42.947V42.9336Z" fill="white"/>
<path d="M37.8069 42.9336V42.947C37.7801 42.9336 37.7667 42.9336 37.7399 42.9336H37.8069Z" fill="white"/>
</g>
<defs>
<clipPath id="clip0_54_134">
<rect width="32.0004" height="32.0004" fill="white" transform="translate(17.7396 16.9332)"/>
</clipPath>
</defs>
</svg>
