<svg width="127" height="64" viewBox="0 0 127 64" fill="none" xmlns="http://www.w3.org/2000/svg">
<circle cx="2.52336" cy="61.4003" r="2.5233" transform="rotate(-90 2.52336 61.4003)" fill="#B8BBD2"/>
<circle cx="17.6633" cy="61.4003" r="2.5233" transform="rotate(-90 17.6633 61.4003)" fill="#B8BBD2"/>
<circle cx="32.803" cy="61.4003" r="2.5233" transform="rotate(-90 32.803 61.4003)" fill="#B8BBD2"/>
<circle cx="47.9428" cy="61.4003" r="2.5233" transform="rotate(-90 47.9428 61.4003)" fill="#B8BBD2"/>
<circle cx="63.0826" cy="61.4003" r="2.5233" transform="rotate(-90 63.0826 61.4003)" fill="#B8BBD2"/>
<circle cx="78.2224" cy="61.4003" r="2.5233" transform="rotate(-90 78.2224 61.4003)" fill="#B8BBD2"/>
<circle cx="93.3622" cy="61.4003" r="2.5233" transform="rotate(-90 93.3622 61.4003)" fill="#B8BBD2"/>
<circle cx="108.502" cy="61.4003" r="2.5233" transform="rotate(-90 108.502 61.4003)" fill="#B8BBD2"/>
<circle cx="123.642" cy="61.4003" r="2.5233" transform="rotate(-90 123.642 61.4003)" fill="#B8BBD2"/>
<circle cx="2.52348" cy="49.6249" r="2.5233" transform="rotate(-90 2.52348 49.6249)" fill="#B8BBD2"/>
<circle cx="17.6633" cy="49.6249" r="2.5233" transform="rotate(-90 17.6633 49.6249)" fill="#B8BBD2"/>
<circle cx="32.803" cy="49.6249" r="2.5233" transform="rotate(-90 32.803 49.6249)" fill="#B8BBD2"/>
<circle cx="47.9428" cy="49.6249" r="2.5233" transform="rotate(-90 47.9428 49.6249)" fill="#B8BBD2"/>
<circle cx="63.0826" cy="49.6249" r="2.5233" transform="rotate(-90 63.0826 49.6249)" fill="#B8BBD2"/>
<circle cx="78.2224" cy="49.6249" r="2.5233" transform="rotate(-90 78.2224 49.6249)" fill="#B8BBD2"/>
<circle cx="93.3622" cy="49.6249" r="2.5233" transform="rotate(-90 93.3622 49.6249)" fill="#B8BBD2"/>
<circle cx="108.502" cy="49.6249" r="2.5233" transform="rotate(-90 108.502 49.6249)" fill="#B8BBD2"/>
<circle cx="123.642" cy="49.6249" r="2.5233" transform="rotate(-90 123.642 49.6249)" fill="#B8BBD2"/>
<circle cx="2.52348" cy="37.8495" r="2.5233" transform="rotate(-90 2.52348 37.8495)" fill="#B8BBD2"/>
<circle cx="17.6633" cy="37.8495" r="2.5233" transform="rotate(-90 17.6633 37.8495)" fill="#B8BBD2"/>
<circle cx="32.803" cy="37.8495" r="2.5233" transform="rotate(-90 32.803 37.8495)" fill="#B8BBD2"/>
<circle cx="47.9428" cy="37.8495" r="2.5233" transform="rotate(-90 47.9428 37.8495)" fill="#B8BBD2"/>
<circle cx="63.0826" cy="37.8495" r="2.5233" transform="rotate(-90 63.0826 37.8495)" fill="#B8BBD2"/>
<circle cx="78.2224" cy="37.8495" r="2.5233" transform="rotate(-90 78.2224 37.8495)" fill="#B8BBD2"/>
<circle cx="93.3622" cy="37.8495" r="2.5233" transform="rotate(-90 93.3622 37.8495)" fill="#B8BBD2"/>
<circle cx="108.502" cy="37.8495" r="2.5233" transform="rotate(-90 108.502 37.8495)" fill="#B8BBD2"/>
<circle cx="123.642" cy="37.8495" r="2.5233" transform="rotate(-90 123.642 37.8495)" fill="#B8BBD2"/>
<circle cx="2.52348" cy="26.0741" r="2.5233" transform="rotate(-90 2.52348 26.0741)" fill="#B8BBD2"/>
<circle cx="17.6633" cy="26.0741" r="2.5233" transform="rotate(-90 17.6633 26.0741)" fill="#B8BBD2"/>
<circle cx="32.803" cy="26.0741" r="2.5233" transform="rotate(-90 32.803 26.0741)" fill="#B8BBD2"/>
<circle cx="47.9428" cy="26.0741" r="2.5233" transform="rotate(-90 47.9428 26.0741)" fill="#B8BBD2"/>
<circle cx="63.0826" cy="26.0741" r="2.5233" transform="rotate(-90 63.0826 26.0741)" fill="#B8BBD2"/>
<circle cx="78.2224" cy="26.0741" r="2.5233" transform="rotate(-90 78.2224 26.0741)" fill="#B8BBD2"/>
<circle cx="93.3622" cy="26.0741" r="2.5233" transform="rotate(-90 93.3622 26.0741)" fill="#B8BBD2"/>
<circle cx="108.502" cy="26.0741" r="2.5233" transform="rotate(-90 108.502 26.0741)" fill="#B8BBD2"/>
<circle cx="123.642" cy="26.0741" r="2.5233" transform="rotate(-90 123.642 26.0741)" fill="#B8BBD2"/>
<circle cx="2.52348" cy="14.2987" r="2.5233" transform="rotate(-90 2.52348 14.2987)" fill="#B8BBD2"/>
<circle cx="17.6633" cy="14.2987" r="2.5233" transform="rotate(-90 17.6633 14.2987)" fill="#B8BBD2"/>
<circle cx="32.803" cy="14.2987" r="2.5233" transform="rotate(-90 32.803 14.2987)" fill="#B8BBD2"/>
<circle cx="47.9428" cy="14.2987" r="2.5233" transform="rotate(-90 47.9428 14.2987)" fill="#B8BBD2"/>
<circle cx="63.0826" cy="14.2987" r="2.5233" transform="rotate(-90 63.0826 14.2987)" fill="#B8BBD2"/>
<circle cx="78.2224" cy="14.2987" r="2.5233" transform="rotate(-90 78.2224 14.2987)" fill="#B8BBD2"/>
<circle cx="93.3622" cy="14.2987" r="2.5233" transform="rotate(-90 93.3622 14.2987)" fill="#B8BBD2"/>
<circle cx="108.502" cy="14.2987" r="2.5233" transform="rotate(-90 108.502 14.2987)" fill="#B8BBD2"/>
<circle cx="123.642" cy="14.2987" r="2.5233" transform="rotate(-90 123.642 14.2987)" fill="#B8BBD2"/>
<circle cx="2.52348" cy="2.52333" r="2.5233" transform="rotate(-90 2.52348 2.52333)" fill="#B8BBD2"/>
<circle cx="17.6633" cy="2.52333" r="2.5233" transform="rotate(-90 17.6633 2.52333)" fill="#B8BBD2"/>
<circle cx="32.803" cy="2.52333" r="2.5233" transform="rotate(-90 32.803 2.52333)" fill="#B8BBD2"/>
<circle cx="47.9428" cy="2.52333" r="2.5233" transform="rotate(-90 47.9428 2.52333)" fill="#B8BBD2"/>
<circle cx="63.0826" cy="2.52333" r="2.5233" transform="rotate(-90 63.0826 2.52333)" fill="#B8BBD2"/>
<circle cx="78.2224" cy="2.52333" r="2.5233" transform="rotate(-90 78.2224 2.52333)" fill="#B8BBD2"/>
<circle cx="93.3622" cy="2.52333" r="2.5233" transform="rotate(-90 93.3622 2.52333)" fill="#B8BBD2"/>
<circle cx="108.502" cy="2.52333" r="2.5233" transform="rotate(-90 108.502 2.52333)" fill="#B8BBD2"/>
<circle cx="123.642" cy="2.52333" r="2.5233" transform="rotate(-90 123.642 2.52333)" fill="#B8BBD2"/>
</svg>
