<svg width="67" height="67" viewBox="0 0 67 67" fill="none" xmlns="http://www.w3.org/2000/svg">
<rect x="0.231079" y="0.522461" width="66.3423" height="66.3423" rx="13.0083" fill="#007C4D"/>
<g clip-path="url(#clip0_54_153)">
<path d="M33.142 22.0426C32.59 22.0426 32.142 21.5946 32.142 21.0426V18.4332C32.142 17.8812 32.59 17.4332 33.142 17.4332C33.694 17.4332 34.142 17.8812 34.142 18.4332V21.0426C34.142 21.5946 33.694 22.0426 33.142 22.0426Z" fill="white"/>
<path d="M41.9034 25.6719C41.6474 25.6719 41.3914 25.5746 41.1967 25.3786C40.806 24.9879 40.806 24.3546 41.1967 23.9639L43.042 22.1186C43.4327 21.7279 44.0661 21.7279 44.4567 22.1186C44.8474 22.5092 44.8474 23.1426 44.4567 23.5332L42.6114 25.3786C42.4154 25.5733 42.1594 25.6719 41.9034 25.6719Z" fill="white"/>
<path d="M48.1421 34.4336H45.5327C44.9807 34.4336 44.5327 33.9856 44.5327 33.4336C44.5327 32.8816 44.9807 32.4336 45.5327 32.4336H48.1421C48.6941 32.4336 49.1421 32.8816 49.1421 33.4336C49.1421 33.9856 48.6941 34.4336 48.1421 34.4336Z" fill="white"/>
<path d="M43.7487 45.0403C43.4927 45.0403 43.2367 44.943 43.042 44.747L41.1967 42.9017C40.806 42.511 40.806 41.8776 41.1967 41.487C41.5874 41.0963 42.2207 41.0963 42.6114 41.487L44.4567 43.3323C44.8474 43.723 44.8474 44.3563 44.4567 44.747C44.2607 44.943 44.0047 45.0403 43.7487 45.0403Z" fill="white"/>
<path d="M22.5351 45.0403C22.2791 45.0403 22.0231 44.943 21.8285 44.747C21.4378 44.3563 21.4378 43.723 21.8285 43.3323L23.6738 41.487C24.0645 41.0963 24.6978 41.0963 25.0885 41.487C25.4792 41.8776 25.4792 42.511 25.0885 42.9017L23.2431 44.747C23.0471 44.943 22.7911 45.0403 22.5351 45.0403Z" fill="white"/>
<path d="M20.7512 34.4336H18.1418C17.5898 34.4336 17.1418 33.9856 17.1418 33.4336C17.1418 32.8816 17.5898 32.4336 18.1418 32.4336H20.7512C21.3032 32.4336 21.7512 32.8816 21.7512 33.4336C21.7512 33.9856 21.3032 34.4336 20.7512 34.4336Z" fill="white"/>
<path d="M24.3805 25.6719C24.1245 25.6719 23.8685 25.5746 23.6738 25.3786L21.8285 23.5332C21.4378 23.1426 21.4378 22.5092 21.8285 22.1186C22.2191 21.7279 22.8525 21.7279 23.2431 22.1186L25.0885 23.9639C25.4792 24.3546 25.4792 24.9879 25.0885 25.3786C24.8912 25.5733 24.6365 25.6719 24.3805 25.6719Z" fill="white"/>
<path d="M37.142 45.4336V47.1003C37.142 48.3803 36.0887 49.4336 34.8086 49.4336H31.4753C30.3553 49.4336 29.1419 48.5803 29.1419 46.7136V45.4336H37.142Z" fill="white"/>
<path d="M39.0221 26.1801C36.8354 24.4068 33.9554 23.7134 31.142 24.3134C27.6086 25.0468 24.7419 27.9268 24.0086 31.4602C23.2619 35.0869 24.6219 38.6869 27.5286 40.887C28.3153 41.4736 28.862 42.3803 29.0487 43.4337V43.447C29.0753 43.4337 29.1153 43.4337 29.142 43.4337H37.1421C37.1688 43.4337 37.1821 43.4337 37.2088 43.447V43.4337C37.3954 42.4203 37.9954 41.487 38.9155 40.767C41.1688 38.9803 42.4755 36.3136 42.4755 33.4335C42.4755 30.6068 41.2221 27.9668 39.0221 26.1801ZM32.642 33.1002H33.6421C35.2047 33.1002 36.4754 34.3709 36.4754 35.9336C36.4754 37.3243 35.4661 38.4789 34.1421 38.7163V40.4336C34.1421 40.9856 33.6941 41.4336 33.142 41.4336C32.59 41.4336 32.142 40.9856 32.142 40.4336V38.7669H30.8087C30.2567 38.7669 29.8087 38.3189 29.8087 37.7669C29.8087 37.2149 30.2567 36.7669 30.8087 36.7669H33.6421C34.1021 36.7669 34.4754 36.3936 34.4754 35.9336C34.4754 35.4736 34.1021 35.1002 33.6421 35.1002H32.642C31.0794 35.1002 29.8087 33.8296 29.8087 32.2669C29.8087 30.8762 30.818 29.7215 32.142 29.4842V27.7668C32.142 27.2148 32.59 26.7668 33.142 26.7668C33.6941 26.7668 34.1421 27.2148 34.1421 27.7668V29.4335H35.4754C36.0274 29.4335 36.4754 29.8815 36.4754 30.4335C36.4754 30.9855 36.0274 31.4335 35.4754 31.4335H32.642C32.182 31.4335 31.8087 31.8069 31.8087 32.2669C31.8087 32.7269 32.182 33.1002 32.642 33.1002Z" fill="white"/>
<path d="M29.0486 43.4336H29.1425C29.1157 43.4336 29.0755 43.4336 29.0486 43.447V43.4336Z" fill="white"/>
<path d="M37.2091 43.4336V43.447C37.1823 43.4336 37.1689 43.4336 37.1421 43.4336H37.2091Z" fill="white"/>
</g>
<defs>
<clipPath id="clip0_54_153">
<rect width="32.0004" height="32.0004" fill="white" transform="translate(17.1418 17.4332)"/>
</clipPath>
</defs>
</svg>
