<svg width="241" height="195" viewBox="0 0 241 195" fill="none" xmlns="http://www.w3.org/2000/svg">
<g filter="url(#filter0_d_101_166)">
<rect x="15" y="11" width="211" height="165" rx="15" fill="white" shape-rendering="crispEdges"/>
<path d="M41.0248 39.7267C41.0248 40.2236 40.8965 40.6418 40.6398 40.9814C40.383 41.3126 40.0352 41.5652 39.5963 41.7391C39.1656 41.913 38.6936 42 38.1801 42H33.9193V33.1801H38.6398C39.0538 33.1801 39.4099 33.2919 39.7081 33.5155C40.0145 33.7308 40.2464 34.0124 40.4037 34.3602C40.5694 34.6998 40.6522 35.0559 40.6522 35.4286C40.6522 35.8509 40.5445 36.2526 40.3292 36.6335C40.1139 37.0145 39.7992 37.2961 39.3851 37.4783C39.8903 37.6273 40.2878 37.8965 40.5776 38.2857C40.8758 38.6749 41.0248 39.1553 41.0248 39.7267ZM39.2981 39.4037C39.2981 39.1801 39.2526 38.9814 39.1615 38.8075C39.0704 38.6253 38.9462 38.4845 38.7888 38.3851C38.6398 38.2774 38.4658 38.2236 38.2671 38.2236H35.6335V40.5466H38.1801C38.3872 40.5466 38.5735 40.4969 38.7391 40.3975C38.913 40.2899 39.0497 40.1491 39.1491 39.9752C39.2484 39.8012 39.2981 39.6108 39.2981 39.4037ZM35.6335 34.646V36.8696H37.9193C38.1097 36.8696 38.2836 36.824 38.441 36.7329C38.5983 36.6418 38.7226 36.5135 38.8137 36.3478C38.913 36.1822 38.9627 35.9834 38.9627 35.7516C38.9627 35.5279 38.9172 35.3333 38.8261 35.1677C38.7433 35.0021 38.6273 34.8737 38.4783 34.7826C38.3375 34.6915 38.176 34.646 37.9938 34.646H35.6335ZM42.1887 32.9317H43.8533V39.913C43.8533 40.2112 43.903 40.4141 44.0023 40.5217C44.1017 40.6211 44.2384 40.6708 44.4123 40.6708C44.5448 40.6708 44.6814 40.6542 44.8222 40.6211C44.963 40.588 45.0872 40.5466 45.1949 40.4969L45.4185 41.764C45.1949 41.8716 44.934 41.9545 44.6359 42.0124C44.3377 42.0704 44.0686 42.0994 43.8284 42.0994C43.3067 42.0994 42.9009 41.9627 42.611 41.6894C42.3295 41.4079 42.1887 41.0104 42.1887 40.4969V32.9317ZM49.1499 42.1242C48.6199 42.1242 48.1437 42.0373 47.7214 41.8634C47.299 41.6812 46.9388 41.4327 46.6406 41.118C46.3508 40.8033 46.1272 40.4431 45.9698 40.0373C45.8125 39.6315 45.7338 39.205 45.7338 38.7578C45.7338 38.3023 45.8125 37.8716 45.9698 37.4658C46.1272 37.06 46.3508 36.6998 46.6406 36.3851C46.9388 36.0704 47.299 35.8261 47.7214 35.6522C48.1437 35.47 48.6199 35.3789 49.1499 35.3789C49.68 35.3789 50.152 35.47 50.5661 35.6522C50.9885 35.8261 51.3487 36.0704 51.6468 36.3851C51.945 36.6998 52.1686 37.06 52.3176 37.4658C52.475 37.8716 52.5537 38.3023 52.5537 38.7578C52.5537 39.205 52.475 39.6315 52.3176 40.0373C52.1686 40.4431 51.945 40.8033 51.6468 41.118C51.357 41.4327 51.0009 41.6812 50.5785 41.8634C50.1562 42.0373 49.68 42.1242 49.1499 42.1242ZM47.4481 38.7578C47.4481 39.1387 47.5226 39.4783 47.6717 39.7764C47.8208 40.0663 48.0236 40.294 48.2804 40.4596C48.5371 40.6253 48.827 40.7081 49.1499 40.7081C49.4646 40.7081 49.7504 40.6253 50.0071 40.4596C50.2638 40.2857 50.4667 40.0538 50.6158 39.764C50.7731 39.4658 50.8518 39.1263 50.8518 38.7453C50.8518 38.3727 50.7731 38.0373 50.6158 37.7391C50.4667 37.441 50.2638 37.2091 50.0071 37.0435C49.7504 36.8778 49.4646 36.795 49.1499 36.795C48.827 36.795 48.5371 36.882 48.2804 37.0559C48.0236 37.2215 47.8208 37.4534 47.6717 37.7516C47.5226 38.0414 47.4481 38.3768 47.4481 38.7578ZM56.7083 42.1242C56.1782 42.1242 55.7021 42.0373 55.2797 41.8634C54.8573 41.6812 54.4971 41.4327 54.199 41.118C53.9008 40.795 53.6689 40.4306 53.5033 40.0248C53.3459 39.619 53.2673 39.1925 53.2673 38.7453C53.2673 38.1325 53.4039 37.5735 53.6772 37.0683C53.9588 36.5549 54.3563 36.1449 54.8698 35.8385C55.3832 35.5321 55.9919 35.3789 56.6958 35.3789C57.3998 35.3789 58.0043 35.5321 58.5095 35.8385C59.0147 36.1449 59.3915 36.5466 59.6399 37.0435L58.0126 37.5404C57.8718 37.3002 57.6855 37.118 57.4536 36.9938C57.2217 36.8613 56.965 36.795 56.6834 36.795C56.3687 36.795 56.0789 36.8778 55.8139 37.0435C55.5571 37.2008 55.3542 37.4286 55.2052 37.7267C55.0561 38.0166 54.9816 38.3561 54.9816 38.7453C54.9816 39.1263 55.0561 39.4658 55.2052 39.764C55.3625 40.0538 55.5696 40.2857 55.8263 40.4596C56.083 40.6253 56.3687 40.7081 56.6834 40.7081C56.8822 40.7081 57.0685 40.6749 57.2424 40.6087C57.4246 40.5424 57.5861 40.4513 57.7269 40.3354C57.8677 40.2195 57.9712 40.087 58.0375 39.9379L59.6648 40.4348C59.5157 40.7578 59.2963 41.0476 59.0064 41.3043C58.7248 41.5611 58.3894 41.764 58.0002 41.913C57.6192 42.0538 57.1886 42.1242 56.7083 42.1242ZM65.1363 42L63.2356 39.1925L62.3537 40.0621V42H60.6891V32.9317H62.3537V38.4224L64.9748 35.5031H66.7387L64.3164 38.2609L66.9127 42H65.1363ZM69.9771 42.1242C69.4222 42.1242 68.8922 42.0331 68.387 41.8509C67.8819 41.6687 67.4471 41.3996 67.0827 41.0435L67.679 39.9627C68.0682 40.2774 68.4491 40.5093 68.8218 40.6584C69.2028 40.8075 69.5672 40.882 69.915 40.882C70.238 40.882 70.4947 40.824 70.6852 40.7081C70.8839 40.5921 70.9833 40.4182 70.9833 40.1863C70.9833 40.029 70.9295 39.9089 70.8218 39.8261C70.7142 39.735 70.5568 39.6563 70.3498 39.5901C70.151 39.5238 69.9067 39.4493 69.6168 39.3665C69.1365 39.2091 68.7349 39.0559 68.4119 38.9068C68.0889 38.7578 67.8446 38.5714 67.679 38.3478C67.5216 38.1159 67.4429 37.8219 67.4429 37.4658C67.4429 37.0352 67.5506 36.6667 67.7659 36.3602C67.9895 36.0455 68.2959 35.8012 68.6852 35.6273C69.0827 35.4534 69.5465 35.3665 70.0765 35.3665C70.5402 35.3665 70.9792 35.441 71.3932 35.5901C71.8073 35.7308 72.1841 35.9627 72.5237 36.2857L71.8529 37.3416C71.5216 37.0849 71.2069 36.8986 70.9088 36.7826C70.6106 36.6584 70.3084 36.5963 70.0019 36.5963C69.828 36.5963 69.6624 36.617 69.505 36.6584C69.356 36.6998 69.2318 36.7702 69.1324 36.8696C69.0413 36.9607 68.9957 37.0932 68.9957 37.2671C68.9957 37.4244 69.0371 37.5487 69.12 37.6398C69.211 37.7226 69.3436 37.7971 69.5175 37.8634C69.6997 37.9296 69.9191 38.0041 70.1759 38.087C70.6976 38.236 71.1365 38.3892 71.4926 38.5466C71.857 38.7039 72.1303 38.8986 72.3125 39.1304C72.4947 39.354 72.5858 39.6646 72.5858 40.0621C72.5858 40.7081 72.3498 41.2133 71.8777 41.5776C71.4057 41.942 70.7721 42.1242 69.9771 42.1242ZM76.6401 39.5652V35.4907H78.3047V39.205C78.3047 39.7019 78.3958 40.0787 78.578 40.3354C78.7602 40.5839 79.0294 40.7081 79.3855 40.7081C79.6008 40.7081 79.812 40.6667 80.019 40.5839C80.2343 40.4928 80.429 40.3602 80.6029 40.1863C80.7851 40.0124 80.9383 39.793 81.0625 39.528V35.4907H82.7271V40.1366C82.7271 40.3106 82.7561 40.4348 82.8141 40.5093C82.8803 40.5839 82.9838 40.6294 83.1246 40.646V42C82.959 42.0248 82.8182 42.0414 82.7023 42.0497C82.5946 42.0663 82.4952 42.0745 82.4041 42.0745C82.106 42.0745 81.8617 42.0083 81.6712 41.8758C81.489 41.735 81.3813 41.5445 81.3482 41.3043L81.3109 40.7826C81.0211 41.2215 80.6484 41.5569 80.1929 41.7888C79.7374 42.0124 79.2364 42.1242 78.6898 42.1242C78.019 42.1242 77.5097 41.9089 77.1619 41.4783C76.8141 41.0393 76.6401 40.4017 76.6401 39.5652ZM90.431 42H88.7664V38.3478C88.7664 37.8261 88.6753 37.4451 88.4931 37.205C88.3109 36.9648 88.0583 36.8447 87.7353 36.8447C87.5117 36.8447 87.284 36.9027 87.0521 37.0186C86.8285 37.1346 86.6256 37.2961 86.4434 37.5031C86.2612 37.7019 86.1287 37.9337 86.0459 38.1988V42H84.3813V35.4907H85.8844V36.6957C86.05 36.4141 86.2612 36.1781 86.518 35.9876C86.7747 35.7888 87.0687 35.6398 87.3999 35.5404C87.7395 35.4327 88.0956 35.3789 88.4683 35.3789C88.8741 35.3789 89.2053 35.4534 89.4621 35.6025C89.7271 35.7433 89.9258 35.9379 90.0583 36.1863C90.1991 36.4265 90.2944 36.6998 90.344 37.0062C90.402 37.3126 90.431 37.6232 90.431 37.9379V42ZM99.8438 35.4907H101.421L98.7009 42H97.3096L96.2164 39.205L95.1481 42H93.7444L91.0363 35.4907H92.6015L94.5394 40.4099L95.2972 38.2857L94.1667 35.5031H95.5456L96.2164 37.4907L96.8997 35.5031H98.2785L97.1481 38.2857L97.9183 40.4099L99.8438 35.4907ZM101.585 40.0745C101.585 39.6522 101.701 39.2836 101.933 38.9689C102.173 38.646 102.504 38.3975 102.927 38.2236C103.349 38.0497 103.833 37.9627 104.38 37.9627C104.653 37.9627 104.931 37.9834 105.212 38.0248C105.494 38.0663 105.738 38.1325 105.945 38.2236V37.8758C105.945 37.4617 105.821 37.1429 105.573 36.9193C105.332 36.6957 104.972 36.5839 104.492 36.5839C104.136 36.5839 103.796 36.646 103.473 36.7702C103.15 36.8944 102.811 37.0766 102.455 37.3168L101.92 36.2236C102.351 35.942 102.79 35.7308 103.237 35.5901C103.693 35.4493 104.169 35.3789 104.666 35.3789C105.593 35.3789 106.314 35.6108 106.827 36.0745C107.349 36.5383 107.61 37.2008 107.61 38.0621V40.1366C107.61 40.3106 107.639 40.4348 107.697 40.5093C107.763 40.5839 107.867 40.6294 108.007 40.646V42C107.858 42.0248 107.722 42.0455 107.597 42.0621C107.481 42.0787 107.382 42.087 107.299 42.087C106.968 42.087 106.715 42.0124 106.542 41.8634C106.376 41.7143 106.272 41.5321 106.231 41.3168L106.194 40.9814C105.912 41.3458 105.56 41.6273 105.138 41.8261C104.715 42.0248 104.285 42.1242 103.846 42.1242C103.415 42.1242 103.026 42.0373 102.678 41.8634C102.339 41.6812 102.069 41.4369 101.871 41.1304C101.68 40.8157 101.585 40.4638 101.585 40.0745ZM105.635 40.4099C105.726 40.3106 105.8 40.2112 105.858 40.1118C105.916 40.0124 105.945 39.9213 105.945 39.8385V39.1801C105.747 39.0973 105.531 39.0352 105.299 38.9938C105.067 38.9441 104.848 38.9193 104.641 38.9193C104.21 38.9193 103.854 39.0145 103.573 39.205C103.299 39.3872 103.163 39.6315 103.163 39.9379C103.163 40.1035 103.208 40.2609 103.299 40.4099C103.39 40.559 103.523 40.6791 103.697 40.7702C103.871 40.8613 104.078 40.9068 104.318 40.9068C104.566 40.9068 104.811 40.8613 105.051 40.7702C105.291 40.6708 105.486 40.5507 105.635 40.4099ZM115.215 42H113.55V38.3478C113.55 37.8261 113.459 37.4451 113.277 37.205C113.095 36.9648 112.842 36.8447 112.519 36.8447C112.296 36.8447 112.068 36.9027 111.836 37.0186C111.613 37.1346 111.41 37.2961 111.227 37.5031C111.045 37.7019 110.913 37.9337 110.83 38.1988V42H109.165V35.4907H110.668V36.6957C110.834 36.4141 111.045 36.1781 111.302 35.9876C111.559 35.7888 111.853 35.6398 112.184 35.5404C112.524 35.4327 112.88 35.3789 113.252 35.3789C113.658 35.3789 113.989 35.4534 114.246 35.6025C114.511 35.7433 114.71 35.9379 114.842 36.1863C114.983 36.4265 115.078 36.6998 115.128 37.0062C115.186 37.3126 115.215 37.6232 115.215 37.9379V42ZM120.527 41.6646C120.386 41.7226 120.216 41.7888 120.017 41.8634C119.819 41.9379 119.603 41.9959 119.371 42.0373C119.148 42.087 118.92 42.1118 118.688 42.1118C118.382 42.1118 118.1 42.058 117.843 41.9503C117.587 41.8427 117.38 41.6729 117.222 41.441C117.073 41.2008 116.999 40.8903 116.999 40.5093V36.7702H116.142V35.4907H116.999V33.3789H118.663V35.4907H120.03V36.7702H118.663V39.9503C118.672 40.1739 118.734 40.3354 118.85 40.4348C118.966 40.5342 119.111 40.5839 119.284 40.5839C119.458 40.5839 119.628 40.5549 119.794 40.4969C119.959 40.4389 120.092 40.3892 120.191 40.3478L120.527 41.6646ZM124.339 42.1242C123.818 42.1242 123.346 42.0373 122.923 41.8634C122.501 41.6812 122.141 41.4369 121.843 41.1304C121.544 40.8157 121.313 40.4596 121.147 40.0621C120.99 39.6563 120.911 39.2298 120.911 38.7826C120.911 38.1615 121.048 37.5942 121.321 37.0807C121.602 36.5673 122 36.1573 122.513 35.8509C123.035 35.5362 123.648 35.3789 124.352 35.3789C125.064 35.3789 125.673 35.5362 126.178 35.8509C126.683 36.1573 127.068 36.5673 127.333 37.0807C127.607 37.5859 127.743 38.1325 127.743 38.7205C127.743 38.8199 127.739 38.9234 127.731 39.0311C127.723 39.1304 127.714 39.2133 127.706 39.2795H122.675C122.708 39.6108 122.803 39.9006 122.961 40.1491C123.126 40.3975 123.333 40.588 123.582 40.7205C123.838 40.8447 124.112 40.9068 124.402 40.9068C124.733 40.9068 125.043 40.8282 125.333 40.6708C125.631 40.5052 125.834 40.2899 125.942 40.0248L127.371 40.4224C127.213 40.7536 126.985 41.0476 126.687 41.3043C126.397 41.5611 126.054 41.764 125.656 41.913C125.259 42.0538 124.82 42.1242 124.339 42.1242ZM122.638 38.2236H126.041C126.008 37.8923 125.913 37.6066 125.756 37.3665C125.607 37.118 125.408 36.9275 125.159 36.795C124.911 36.6542 124.633 36.5839 124.327 36.5839C124.029 36.5839 123.756 36.6542 123.507 36.795C123.267 36.9275 123.068 37.118 122.911 37.3665C122.762 37.6066 122.671 37.8923 122.638 38.2236ZM128.36 38.7453C128.36 38.1159 128.484 37.5487 128.732 37.0435C128.981 36.53 129.325 36.1242 129.763 35.8261C130.202 35.5279 130.703 35.3789 131.267 35.3789C131.747 35.3789 132.178 35.499 132.559 35.7391C132.948 35.971 133.25 36.2692 133.465 36.6335V32.9317H135.13V40.1366C135.13 40.3106 135.159 40.4348 135.217 40.5093C135.275 40.5839 135.374 40.6294 135.515 40.646V42C135.225 42.058 134.989 42.087 134.807 42.087C134.509 42.087 134.26 42.0124 134.062 41.8634C133.871 41.7143 133.763 41.5197 133.739 41.2795L133.714 40.8696C133.474 41.2754 133.147 41.5859 132.732 41.8012C132.327 42.0166 131.9 42.1242 131.453 42.1242C131.006 42.1242 130.592 42.0373 130.211 41.8634C129.838 41.6894 129.511 41.4493 129.229 41.1429C128.956 40.8364 128.741 40.4803 128.583 40.0745C128.434 39.6605 128.36 39.2174 128.36 38.7453ZM133.465 39.6149V38.0621C133.383 37.8219 133.25 37.6066 133.068 37.4161C132.886 37.2257 132.683 37.0766 132.459 36.9689C132.236 36.853 132.012 36.795 131.788 36.795C131.532 36.795 131.3 36.8489 131.093 36.9565C130.886 37.0642 130.703 37.2091 130.546 37.3913C130.397 37.5735 130.281 37.7847 130.198 38.0248C130.124 38.265 130.086 38.5176 130.086 38.7826C130.086 39.0476 130.128 39.3002 130.211 39.5404C130.302 39.7723 130.43 39.9752 130.596 40.1491C130.761 40.323 130.952 40.4596 131.167 40.559C131.391 40.6584 131.631 40.7081 131.888 40.7081C132.045 40.7081 132.202 40.6832 132.36 40.6335C132.525 40.5756 132.679 40.501 132.819 40.4099C132.968 40.3106 133.097 40.1946 133.204 40.0621C133.32 39.9213 133.407 39.7723 133.465 39.6149ZM139.351 38.7453C139.351 38.1159 139.475 37.5487 139.723 37.0435C139.972 36.53 140.315 36.1242 140.754 35.8261C141.193 35.5279 141.694 35.3789 142.257 35.3789C142.738 35.3789 143.168 35.499 143.549 35.7391C143.939 35.971 144.241 36.2692 144.456 36.6335V32.9317H146.121V40.1366C146.121 40.3106 146.15 40.4348 146.208 40.5093C146.266 40.5839 146.365 40.6294 146.506 40.646V42C146.216 42.058 145.98 42.087 145.798 42.087C145.5 42.087 145.251 42.0124 145.053 41.8634C144.862 41.7143 144.754 41.5197 144.73 41.2795L144.705 40.8696C144.465 41.2754 144.137 41.5859 143.723 41.8012C143.318 42.0166 142.891 42.1242 142.444 42.1242C141.997 42.1242 141.583 42.0373 141.202 41.8634C140.829 41.6894 140.502 41.4493 140.22 41.1429C139.947 40.8364 139.732 40.4803 139.574 40.0745C139.425 39.6605 139.351 39.2174 139.351 38.7453ZM144.456 39.6149V38.0621C144.373 37.8219 144.241 37.6066 144.059 37.4161C143.877 37.2257 143.674 37.0766 143.45 36.9689C143.226 36.853 143.003 36.795 142.779 36.795C142.522 36.795 142.291 36.8489 142.084 36.9565C141.877 37.0642 141.694 37.2091 141.537 37.3913C141.388 37.5735 141.272 37.7847 141.189 38.0248C141.115 38.265 141.077 38.5176 141.077 38.7826C141.077 39.0476 141.119 39.3002 141.202 39.5404C141.293 39.7723 141.421 39.9752 141.587 40.1491C141.752 40.323 141.943 40.4596 142.158 40.559C142.382 40.6584 142.622 40.7081 142.879 40.7081C143.036 40.7081 143.193 40.6832 143.351 40.6335C143.516 40.5756 143.669 40.501 143.81 40.4099C143.959 40.3106 144.088 40.1946 144.195 40.0621C144.311 39.9213 144.398 39.7723 144.456 39.6149ZM150.761 42.1242C150.231 42.1242 149.755 42.0373 149.332 41.8634C148.91 41.6812 148.55 41.4327 148.252 41.118C147.962 40.8033 147.738 40.4431 147.581 40.0373C147.423 39.6315 147.345 39.205 147.345 38.7578C147.345 38.3023 147.423 37.8716 147.581 37.4658C147.738 37.06 147.962 36.6998 148.252 36.3851C148.55 36.0704 148.91 35.8261 149.332 35.6522C149.755 35.47 150.231 35.3789 150.761 35.3789C151.291 35.3789 151.763 35.47 152.177 35.6522C152.599 35.8261 152.96 36.0704 153.258 36.3851C153.556 36.6998 153.78 37.06 153.929 37.4658C154.086 37.8716 154.165 38.3023 154.165 38.7578C154.165 39.205 154.086 39.6315 153.929 40.0373C153.78 40.4431 153.556 40.8033 153.258 41.118C152.968 41.4327 152.612 41.6812 152.19 41.8634C151.767 42.0373 151.291 42.1242 150.761 42.1242ZM149.059 38.7578C149.059 39.1387 149.134 39.4783 149.283 39.7764C149.432 40.0663 149.635 40.294 149.891 40.4596C150.148 40.6253 150.438 40.7081 150.761 40.7081C151.076 40.7081 151.361 40.6253 151.618 40.4596C151.875 40.2857 152.078 40.0538 152.227 39.764C152.384 39.4658 152.463 39.1263 152.463 38.7453C152.463 38.3727 152.384 38.0373 152.227 37.7391C152.078 37.441 151.875 37.2091 151.618 37.0435C151.361 36.8778 151.076 36.795 150.761 36.795C150.438 36.795 150.148 36.882 149.891 37.0559C149.635 37.2215 149.432 37.4534 149.283 37.7516C149.134 38.0414 149.059 38.3768 149.059 38.7578ZM165.4 42H163.735V38.3478C163.735 37.8344 163.644 37.4576 163.462 37.2174C163.288 36.9689 163.044 36.8447 162.729 36.8447C162.406 36.8447 162.096 36.9731 161.798 37.2298C161.508 37.4783 161.301 37.8054 161.176 38.2112V42H159.512V38.3478C159.512 37.8261 159.421 37.4451 159.239 37.205C159.065 36.9648 158.82 36.8447 158.506 36.8447C158.183 36.8447 157.872 36.9689 157.574 37.2174C157.284 37.4658 157.077 37.793 156.953 38.1988V42H155.288V35.4907H156.791V36.6957C157.04 36.2733 157.371 35.9503 157.785 35.7267C158.199 35.4948 158.675 35.3789 159.214 35.3789C159.752 35.3789 160.17 35.5114 160.468 35.7764C160.775 36.0414 160.969 36.3685 161.052 36.7578C161.317 36.3106 161.653 35.971 162.058 35.7391C162.473 35.499 162.936 35.3789 163.45 35.3789C163.856 35.3789 164.183 35.4534 164.431 35.6025C164.688 35.7433 164.887 35.9379 165.027 36.1863C165.168 36.4265 165.263 36.6998 165.313 37.0062C165.371 37.3126 165.4 37.6232 165.4 37.9379V42ZM166.402 40.0745C166.402 39.6522 166.518 39.2836 166.75 38.9689C166.99 38.646 167.321 38.3975 167.744 38.2236C168.166 38.0497 168.651 37.9627 169.197 37.9627C169.47 37.9627 169.748 37.9834 170.029 38.0248C170.311 38.0663 170.555 38.1325 170.762 38.2236V37.8758C170.762 37.4617 170.638 37.1429 170.39 36.9193C170.149 36.6957 169.789 36.5839 169.309 36.5839C168.953 36.5839 168.613 36.646 168.29 36.7702C167.967 36.8944 167.628 37.0766 167.272 37.3168L166.737 36.2236C167.168 35.942 167.607 35.7308 168.054 35.5901C168.51 35.4493 168.986 35.3789 169.483 35.3789C170.41 35.3789 171.131 35.6108 171.644 36.0745C172.166 36.5383 172.427 37.2008 172.427 38.0621V40.1366C172.427 40.3106 172.456 40.4348 172.514 40.5093C172.58 40.5839 172.684 40.6294 172.824 40.646V42C172.675 42.0248 172.539 42.0455 172.415 42.0621C172.299 42.0787 172.199 42.087 172.116 42.087C171.785 42.087 171.533 42.0124 171.359 41.8634C171.193 41.7143 171.089 41.5321 171.048 41.3168L171.011 40.9814C170.729 41.3458 170.377 41.6273 169.955 41.8261C169.533 42.0248 169.102 42.1242 168.663 42.1242C168.232 42.1242 167.843 42.0373 167.495 41.8634C167.156 41.6812 166.887 41.4369 166.688 41.1304C166.497 40.8157 166.402 40.4638 166.402 40.0745ZM170.452 40.4099C170.543 40.3106 170.617 40.2112 170.675 40.1118C170.733 40.0124 170.762 39.9213 170.762 39.8385V39.1801C170.564 39.0973 170.348 39.0352 170.116 38.9938C169.884 38.9441 169.665 38.9193 169.458 38.9193C169.027 38.9193 168.671 39.0145 168.39 39.205C168.116 39.3872 167.98 39.6315 167.98 39.9379C167.98 40.1035 168.025 40.2609 168.116 40.4099C168.207 40.559 168.34 40.6791 168.514 40.7702C168.688 40.8613 168.895 40.9068 169.135 40.9068C169.383 40.9068 169.628 40.8613 169.868 40.7702C170.108 40.6708 170.303 40.5507 170.452 40.4099ZM173.982 42V35.4907H175.647V42H173.982ZM173.982 34.5839V32.9317H175.647V34.5839H173.982ZM183.198 42H181.534V38.3478C181.534 37.8261 181.443 37.4451 181.26 37.205C181.078 36.9648 180.826 36.8447 180.503 36.8447C180.279 36.8447 180.051 36.9027 179.819 37.0186C179.596 37.1346 179.393 37.2961 179.211 37.5031C179.029 37.7019 178.896 37.9337 178.813 38.1988V42H177.149V35.4907H178.652V36.6957C178.817 36.4141 179.029 36.1781 179.285 35.9876C179.542 35.7888 179.836 35.6398 180.167 35.5404C180.507 35.4327 180.863 35.3789 181.236 35.3789C181.641 35.3789 181.973 35.4534 182.229 35.6025C182.494 35.7433 182.693 35.9379 182.826 36.1863C182.966 36.4265 183.062 36.6998 183.111 37.0062C183.169 37.3126 183.198 37.6232 183.198 37.9379V42ZM187.043 42.1242C186.488 42.1242 185.958 42.0331 185.453 41.8509C184.948 41.6687 184.513 41.3996 184.149 41.0435L184.745 39.9627C185.134 40.2774 185.515 40.5093 185.888 40.6584C186.269 40.8075 186.633 40.882 186.981 40.882C187.304 40.882 187.561 40.824 187.751 40.7081C187.95 40.5921 188.049 40.4182 188.049 40.1863C188.049 40.029 187.996 39.9089 187.888 39.8261C187.78 39.735 187.623 39.6563 187.416 39.5901C187.217 39.5238 186.973 39.4493 186.683 39.3665C186.203 39.2091 185.801 39.0559 185.478 38.9068C185.155 38.7578 184.911 38.5714 184.745 38.3478C184.588 38.1159 184.509 37.8219 184.509 37.4658C184.509 37.0352 184.617 36.6667 184.832 36.3602C185.056 36.0455 185.362 35.8012 185.751 35.6273C186.149 35.4534 186.613 35.3665 187.143 35.3665C187.606 35.3665 188.045 35.441 188.459 35.5901C188.874 35.7308 189.25 35.9627 189.59 36.2857L188.919 37.3416C188.588 37.0849 188.273 36.8986 187.975 36.7826C187.677 36.6584 187.375 36.5963 187.068 36.5963C186.894 36.5963 186.729 36.617 186.571 36.6584C186.422 36.6998 186.298 36.7702 186.199 36.8696C186.107 36.9607 186.062 37.0932 186.062 37.2671C186.062 37.4244 186.103 37.5487 186.186 37.6398C186.277 37.7226 186.41 37.7971 186.584 37.8634C186.766 37.9296 186.985 38.0041 187.242 38.087C187.764 38.236 188.203 38.3892 188.559 38.5466C188.923 38.7039 189.196 38.8986 189.379 39.1304C189.561 39.354 189.652 39.6646 189.652 40.0621C189.652 40.7081 189.416 41.2133 188.944 41.5776C188.472 41.942 187.838 42.1242 187.043 42.1242Z" fill="#181818"/>
<path d="M37.5342 71.795H35.2609V75H34.0435V66.0186H37.5342C39.2981 66.0186 40.4286 67.1739 40.4286 68.9006C40.4286 70.5776 39.2857 71.795 37.5342 71.795ZM37.323 67.1118H35.2609V70.7019H37.2733C38.4783 70.7019 39.1491 69.9938 39.1491 68.8882C39.1491 67.7578 38.4658 67.1118 37.323 67.1118ZM40.9322 71.9565C40.9322 70.0807 42.2738 68.764 44.0999 68.764C45.9135 68.764 47.2551 70.0807 47.2551 71.9565C47.2551 73.8323 45.9135 75.1491 44.0999 75.1491C42.2738 75.1491 40.9322 73.8323 40.9322 71.9565ZM42.1123 71.9565C42.1123 73.2236 42.9197 74.1056 44.0999 74.1056C45.2676 74.1056 46.0874 73.2236 46.0874 71.9565C46.0874 70.6894 45.2676 69.8075 44.0999 69.8075C42.9197 69.8075 42.1123 70.6894 42.1123 71.9565ZM49.7155 75H48.5477V68.9255H49.6036L49.7279 69.8571C50.113 69.1615 50.8832 68.7516 51.7403 68.7516C53.3428 68.7516 54.0757 69.7329 54.0757 71.2857V75H52.908V71.5466C52.908 70.3168 52.3366 69.8199 51.4422 69.8199C50.349 69.8199 49.7155 70.6025 49.7155 71.7826V75ZM55.2955 71.9565C55.2955 70.0807 56.6371 68.764 58.4632 68.764C60.2769 68.764 61.6185 70.0807 61.6185 71.9565C61.6185 73.8323 60.2769 75.1491 58.4632 75.1491C56.6371 75.1491 55.2955 73.8323 55.2955 71.9565ZM56.4756 71.9565C56.4756 73.2236 57.2831 74.1056 58.4632 74.1056C59.6309 74.1056 60.4508 73.2236 60.4508 71.9565C60.4508 70.6894 59.6309 69.8075 58.4632 69.8075C57.2831 69.8075 56.4756 70.6894 56.4756 71.9565ZM62.526 71.8075C62.526 70.0932 63.6316 68.7516 65.3956 68.7516C66.3769 68.7516 67.1347 69.1988 67.5198 69.9565L67.6068 68.9255H68.6502V74.7516C68.6502 76.6646 67.4701 77.882 65.6068 77.882C63.9546 77.882 62.8241 76.9503 62.6005 75.4099H63.7682C63.9173 76.3043 64.5881 76.8261 65.6068 76.8261C66.7496 76.8261 67.495 76.0807 67.495 74.9255V73.7081C67.0974 74.4161 66.3024 74.8385 65.3459 74.8385C63.6192 74.8385 62.526 73.5093 62.526 71.8075ZM63.6937 71.7826C63.6937 72.9255 64.4018 73.8199 65.5446 73.8199C66.7248 73.8199 67.4453 72.9752 67.4453 71.7826C67.4453 70.6149 66.7496 69.7702 65.5571 69.7702C64.3894 69.7702 63.6937 70.6646 63.6937 71.7826ZM73.8137 68.8758V69.9441H73.2919C72.1863 69.9441 71.5031 70.6149 71.5031 71.7826V75H70.3354V68.9379H71.4286L71.5031 69.8571C71.7516 69.2236 72.3602 68.8012 73.1925 68.8012C73.4037 68.8012 73.5776 68.8261 73.8137 68.8758ZM76.4426 75.1491C75.1383 75.1491 74.3681 74.4161 74.3681 73.3106C74.3681 72.1925 75.2004 71.4969 76.629 71.3851L78.542 71.236V71.0621C78.542 70.0435 77.9333 69.6832 77.1135 69.6832C76.1321 69.6832 75.5731 70.118 75.5731 70.8509H74.5544C74.5544 69.5839 75.5979 68.7516 77.1631 68.7516C78.6662 68.7516 79.6849 69.5466 79.6849 71.1863V75H78.6911L78.5669 74.0186C78.2563 74.7143 77.424 75.1491 76.4426 75.1491ZM76.778 74.2422C77.8836 74.2422 78.5544 73.5217 78.5544 72.3789V72.0559L77.0016 72.1801C75.9706 72.2795 75.5482 72.677 75.5482 73.2733C75.5482 73.9193 76.0203 74.2422 76.778 74.2422ZM81.302 77.7205V68.9255H82.3579L82.4449 70.0186C82.8548 69.1863 83.6747 68.7516 84.6436 68.7516C86.3828 68.7516 87.4635 70.0559 87.4635 71.9193C87.4635 73.7702 86.4449 75.1615 84.6436 75.1615C83.6747 75.1615 82.8672 74.7516 82.4697 74.0062V77.7205H81.302ZM82.4821 71.9689C82.4821 73.2112 83.2026 74.1056 84.3952 74.1056C85.5877 74.1056 86.2958 73.2112 86.2958 71.9689C86.2958 70.7143 85.5877 69.8199 84.3952 69.8199C83.2026 69.8199 82.4821 70.7019 82.4821 71.9689ZM89.9183 74.9876H88.7506V65.8571H89.9183V69.8571C90.3034 69.1988 91.0363 68.7516 91.9804 68.7516C93.5332 68.7516 94.2785 69.7329 94.2785 71.2857V75H93.1108V71.5466C93.1108 70.3168 92.527 69.8199 91.6574 69.8199C90.527 69.8199 89.9183 70.6398 89.9183 71.6832V74.9876ZM95.1907 77.7205V76.764H95.9733C96.5323 76.764 96.9795 76.677 97.2652 75.9068L97.4764 75.323L95.0292 68.9255H96.259L98.023 73.8199L99.8242 68.9255H101.029L98.1596 76.3665C97.7497 77.4099 97.141 77.8447 96.2093 77.8447C95.8242 77.8447 95.5013 77.795 95.1907 77.7205Z" fill="#666666"/>
<path d="M37.8944 101.012C35.9565 101.012 34.7888 102.441 34.7888 104.565C34.7888 106.739 36.0559 107.994 37.9068 107.994C39.4348 107.994 40.6646 107.211 40.6646 105.398V105.137H37.6584V104.056H41.8075V109.012H40.7888L40.7019 107.795C40.2174 108.578 39.1242 109.149 37.8075 109.149C35.2609 109.149 33.5093 107.311 33.5093 104.54C33.5093 101.807 35.2733 99.8696 37.9193 99.8696C39.882 99.8696 41.4099 101 41.7081 102.727H40.4161C40.0807 101.584 39.087 101.012 37.8944 101.012ZM45.1199 109.149C43.8155 109.149 43.0453 108.416 43.0453 107.311C43.0453 106.193 43.8776 105.497 45.3062 105.385L47.2192 105.236V105.062C47.2192 104.043 46.6105 103.683 45.7907 103.683C44.8093 103.683 44.2503 104.118 44.2503 104.851H43.2317C43.2317 103.584 44.2751 102.752 45.8404 102.752C47.3435 102.752 48.3621 103.547 48.3621 105.186V109H47.3683L47.2441 108.019C46.9335 108.714 46.1012 109.149 45.1199 109.149ZM45.4553 108.242C46.5609 108.242 47.2317 107.522 47.2317 106.379V106.056L45.6789 106.18C44.6478 106.28 44.2254 106.677 44.2254 107.273C44.2254 107.919 44.6975 108.242 45.4553 108.242ZM51.1469 109H49.9792V102.925H51.0227L51.1345 103.72C51.4451 103.149 52.091 102.752 52.9482 102.752C53.8923 102.752 54.5631 103.224 54.8736 103.981C55.1594 103.224 55.8923 102.752 56.8364 102.752C58.2277 102.752 59.0724 103.621 59.0724 105.025V109H57.9295V105.311C57.9295 104.354 57.3954 103.807 56.5755 103.807C55.6935 103.807 55.1097 104.429 55.1097 105.398V109H53.9544V105.298C53.9544 104.342 53.4326 103.82 52.6128 103.82C51.7308 103.82 51.1469 104.429 51.1469 105.398V109ZM61.747 109H60.6911V99.8571H61.8588V103.969C62.2563 103.174 63.0762 102.752 64.07 102.752C65.8091 102.752 66.8526 104.118 66.8526 105.994C66.8526 107.832 65.7594 109.149 63.9954 109.149C63.0389 109.149 62.2315 108.727 61.8339 107.894L61.747 109ZM61.8712 105.944C61.8712 107.211 62.5917 108.093 63.7843 108.093C64.9768 108.093 65.6849 107.199 65.6849 105.944C65.6849 104.702 64.9768 103.807 63.7843 103.807C62.5917 103.807 61.8712 104.702 61.8712 105.944ZM69.3322 109H68.1645V99.8571H69.3322V109ZM71.6226 101.484C71.2002 101.484 70.8524 101.137 70.8524 100.714C70.8524 100.28 71.2002 99.9441 71.6226 99.9441C72.0449 99.9441 72.3928 100.28 72.3928 100.714C72.3928 101.137 72.0449 101.484 71.6226 101.484ZM71.0511 109V102.925H72.2188V109H71.0511ZM75.0818 109H73.9141V102.925H74.97L75.0942 103.857C75.4793 103.161 76.2495 102.752 77.1067 102.752C78.7091 102.752 79.4421 103.733 79.4421 105.286V109H78.2744V105.547C78.2744 104.317 77.7029 103.82 76.8085 103.82C75.7154 103.82 75.0818 104.602 75.0818 105.783V109ZM80.6743 105.807C80.6743 104.093 81.7799 102.752 83.5439 102.752C84.5252 102.752 85.283 103.199 85.6681 103.957L85.755 102.925H86.7985V108.752C86.7985 110.665 85.6184 111.882 83.755 111.882C82.1029 111.882 80.9724 110.95 80.7488 109.41H81.9165C82.0656 110.304 82.7364 110.826 83.755 110.826C84.8979 110.826 85.6432 110.081 85.6432 108.925V107.708C85.2457 108.416 84.4507 108.839 83.4942 108.839C81.7675 108.839 80.6743 107.509 80.6743 105.807ZM81.842 105.783C81.842 106.925 82.5501 107.82 83.6929 107.82C84.8731 107.82 85.5936 106.975 85.5936 105.783C85.5936 104.615 84.8979 103.77 83.7054 103.77C82.5377 103.77 81.842 104.665 81.842 105.783Z" fill="#666666"/>
<path d="M33.5217 136.441C33.5217 134.901 34.764 133.857 36.6149 133.857C38.3292 133.857 39.4348 134.814 39.5342 136.366H38.3043C38.2422 135.472 37.6087 134.95 36.6025 134.95C35.472 134.95 34.7391 135.522 34.7391 136.404C34.7391 137.124 35.1491 137.559 35.9938 137.758L37.472 138.106C38.9379 138.441 39.6832 139.236 39.6832 140.503C39.6832 142.118 38.4286 143.149 36.5155 143.149C34.6894 143.149 33.472 142.193 33.3975 140.652H34.6398C34.6646 141.509 35.3851 142.056 36.5155 142.056C37.7081 142.056 38.4658 141.497 38.4658 140.602C38.4658 139.894 38.0807 139.447 37.2236 139.248L35.7453 138.913C34.2795 138.578 33.5217 137.733 33.5217 136.441ZM43.6354 143.149C41.8466 143.149 40.6168 141.857 40.6168 139.969C40.6168 138.068 41.8217 136.752 43.5857 136.752C45.3124 136.752 46.4428 137.944 46.4428 139.745V140.18L41.7472 140.193C41.8341 141.472 42.5049 142.18 43.6602 142.18C44.5671 142.18 45.1633 141.807 45.3621 141.112H46.4553C46.1571 142.416 45.1385 143.149 43.6354 143.149ZM43.5857 137.733C42.5671 137.733 41.9211 138.342 41.772 139.41H45.2751C45.2751 138.404 44.6168 137.733 43.5857 137.733ZM49.4628 143.149C48.1585 143.149 47.3883 142.416 47.3883 141.311C47.3883 140.193 48.2206 139.497 49.6492 139.385L51.5622 139.236V139.062C51.5622 138.043 50.9535 137.683 50.1336 137.683C49.1523 137.683 48.5933 138.118 48.5933 138.851H47.5746C47.5746 137.584 48.6181 136.752 50.1833 136.752C51.6864 136.752 52.7051 137.547 52.7051 139.186V143H51.7113L51.5871 142.019C51.2765 142.714 50.4442 143.149 49.4628 143.149ZM49.7982 142.242C50.9038 142.242 51.5746 141.522 51.5746 140.379V140.056L50.0218 140.18C48.9908 140.28 48.5684 140.677 48.5684 141.273C48.5684 141.919 49.0405 142.242 49.7982 142.242ZM57.8005 136.876V137.944H57.2787C56.1731 137.944 55.4899 138.615 55.4899 139.783V143H54.3222V136.938H55.4154L55.4899 137.857C55.7384 137.224 56.3471 136.801 57.1793 136.801C57.3905 136.801 57.5644 136.826 57.8005 136.876ZM58.2798 139.969C58.2798 138.068 59.4848 136.752 61.2612 136.752C62.7891 136.752 63.8574 137.621 64.0686 138.975H62.9009C62.7022 138.205 62.081 137.795 61.2984 137.795C60.1928 137.795 59.4351 138.64 59.4351 139.957C59.4351 141.261 60.1431 142.106 61.2487 142.106C62.081 142.106 62.7022 141.671 62.9133 140.95H64.081C63.845 142.267 62.7146 143.149 61.2487 143.149C59.4599 143.149 58.2798 141.882 58.2798 139.969ZM66.4808 142.988H65.3131V133.857H66.4808V137.857C66.8659 137.199 67.5988 136.752 68.5429 136.752C70.0957 136.752 70.841 137.733 70.841 139.286V143H69.6733V139.547C69.6733 138.317 69.0895 137.82 68.2199 137.82C67.0895 137.82 66.4808 138.64 66.4808 139.683V142.988ZM78.4762 143.149C76.6874 143.149 75.4576 141.857 75.4576 139.969C75.4576 138.068 76.6626 136.752 78.4265 136.752C80.1532 136.752 81.2837 137.944 81.2837 139.745V140.18L76.588 140.193C76.675 141.472 77.3458 142.18 78.5011 142.18C79.4079 142.18 80.0042 141.807 80.2029 141.112H81.2961C80.998 142.416 79.9793 143.149 78.4762 143.149ZM78.4265 137.733C77.4079 137.733 76.7619 138.342 76.6129 139.41H80.116C80.116 138.404 79.4576 137.733 78.4265 137.733ZM83.7556 143H82.5879V136.925H83.6438L83.7681 137.857C84.1531 137.161 84.9233 136.752 85.7805 136.752C87.383 136.752 88.1159 137.733 88.1159 139.286V143H86.9482V139.547C86.9482 138.317 86.3768 137.82 85.4823 137.82C84.3892 137.82 83.7556 138.602 83.7556 139.783V143ZM89.3481 139.807C89.3481 138.093 90.4537 136.752 92.2177 136.752C93.1991 136.752 93.9568 137.199 94.3419 137.957L94.4289 136.925H95.4723V142.752C95.4723 144.665 94.2922 145.882 92.4289 145.882C90.7767 145.882 89.6463 144.95 89.4227 143.41H90.5904C90.7394 144.304 91.4102 144.826 92.4289 144.826C93.5717 144.826 94.3171 144.081 94.3171 142.925V141.708C93.9195 142.416 93.1245 142.839 92.168 142.839C90.4413 142.839 89.3481 141.509 89.3481 139.807ZM90.5158 139.783C90.5158 140.925 91.2239 141.82 92.3668 141.82C93.5469 141.82 94.2674 140.975 94.2674 139.783C94.2674 138.615 93.5717 137.77 92.3792 137.77C91.2115 137.77 90.5158 138.665 90.5158 139.783ZM97.7289 135.484C97.3066 135.484 96.9588 135.137 96.9588 134.714C96.9588 134.28 97.3066 133.944 97.7289 133.944C98.1513 133.944 98.4991 134.28 98.4991 134.714C98.4991 135.137 98.1513 135.484 97.7289 135.484ZM97.1575 143V136.925H98.3252V143H97.1575ZM101.188 143H100.02V136.925H101.076L101.201 137.857C101.586 137.161 102.356 136.752 103.213 136.752C104.816 136.752 105.548 137.733 105.548 139.286V143H104.381V139.547C104.381 138.317 103.809 137.82 102.915 137.82C101.822 137.82 101.188 138.602 101.188 139.783V143ZM109.787 143.149C107.998 143.149 106.768 141.857 106.768 139.969C106.768 138.068 107.973 136.752 109.737 136.752C111.464 136.752 112.594 137.944 112.594 139.745V140.18L107.899 140.193C107.986 141.472 108.656 142.18 109.812 142.18C110.719 142.18 111.315 141.807 111.514 141.112H112.607C112.309 142.416 111.29 143.149 109.787 143.149ZM109.737 137.733C108.719 137.733 108.073 138.342 107.924 139.41H111.427C111.427 138.404 110.768 137.733 109.737 137.733ZM113.402 141.236H114.52C114.52 141.857 114.992 142.23 115.762 142.23C116.582 142.23 117.054 141.894 117.054 141.335C117.054 140.925 116.855 140.677 116.222 140.516L115.153 140.267C114.072 140.006 113.563 139.472 113.563 138.578C113.563 137.46 114.507 136.752 115.849 136.752C117.178 136.752 118.048 137.497 118.072 138.652H116.954C116.93 138.043 116.52 137.658 115.812 137.658C115.079 137.658 114.669 137.981 114.669 138.54C114.669 138.95 114.967 139.224 115.563 139.373L116.632 139.634C117.663 139.882 118.172 140.354 118.172 141.261C118.172 142.416 117.178 143.149 115.737 143.149C114.309 143.149 113.402 142.391 113.402 141.236Z" fill="#666666"/>
<circle cx="196" cy="69" r="9" fill="#FF3E41"/>
<path d="M198.173 66.8276L193.828 71.1725M193.828 66.8276L198.173 71.1725" stroke="white" stroke-width="0.465517" stroke-linecap="round" stroke-linejoin="round"/>
<circle cx="196" cy="104" r="9" fill="#FF3E41"/>
<path d="M198.173 101.828L193.828 106.172M193.828 101.828L198.173 106.172" stroke="white" stroke-width="0.465517" stroke-linecap="round" stroke-linejoin="round"/>
<circle cx="196" cy="138" r="9" fill="#189264"/>
<path d="M193.667 138.833C193.667 138.833 194.167 138.833 194.833 140C194.833 140 196.686 136.944 198.333 136.333" stroke="white" stroke-opacity="0.7" stroke-width="0.5" stroke-linecap="round" stroke-linejoin="round"/>
</g>
<defs>
<filter id="filter0_d_101_166" x="0" y="0" width="241" height="195" filterUnits="userSpaceOnUse" color-interpolation-filters="sRGB">
<feFlood flood-opacity="0" result="BackgroundImageFix"/>
<feColorMatrix in="SourceAlpha" type="matrix" values="0 0 0 0 0 0 0 0 0 0 0 0 0 0 0 0 0 0 127 0" result="hardAlpha"/>
<feOffset dy="4"/>
<feGaussianBlur stdDeviation="7.5"/>
<feComposite in2="hardAlpha" operator="out"/>
<feColorMatrix type="matrix" values="0 0 0 0 0.564706 0 0 0 0 0.572549 0 0 0 0 0.690196 0 0 0 0.21 0"/>
<feBlend mode="normal" in2="BackgroundImageFix" result="effect1_dropShadow_101_166"/>
<feBlend mode="normal" in="SourceGraphic" in2="effect1_dropShadow_101_166" result="shape"/>
</filter>
</defs>
</svg>
