<svg width="285" height="195" viewBox="0 0 285 195" fill="none" xmlns="http://www.w3.org/2000/svg">
<g filter="url(#filter0_d_101_165)">
<rect x="15" y="11" width="211" height="165" rx="15" fill="white" shape-rendering="crispEdges"/>
<path d="M35.9193 33V24.1801H39.1242C40.0849 24.1801 40.8882 24.3789 41.5342 24.7764C42.1801 25.1656 42.6646 25.6957 42.9876 26.3665C43.3106 27.029 43.4721 27.766 43.4721 28.5776C43.4721 29.472 43.294 30.2505 42.9379 30.913C42.5818 31.5756 42.0766 32.089 41.4224 32.4534C40.7764 32.8178 40.0104 33 39.1242 33H35.9193ZM41.7453 28.5776C41.7453 28.0062 41.6418 27.5052 41.4348 27.0745C41.2277 26.6356 40.9296 26.2961 40.5404 26.0559C40.1511 25.8075 39.6791 25.6832 39.1242 25.6832H37.6335V31.4969H39.1242C39.6874 31.4969 40.1636 31.3727 40.5528 31.1242C40.942 30.8675 41.236 30.5197 41.4348 30.0807C41.6418 29.6335 41.7453 29.1325 41.7453 28.5776ZM46.5257 27.3354V33H44.8114V24.1801H46.1779L50.7369 29.9938V24.1925H52.4512V33H51.0226L46.5257 27.3354ZM59.5406 26.4907C59.4826 26.4327 59.3749 26.354 59.2176 26.2547C59.0685 26.1553 58.8822 26.06 58.6586 25.9689C58.4433 25.8778 58.2072 25.7992 57.9505 25.7329C57.6938 25.6584 57.4329 25.6211 57.1679 25.6211C56.7041 25.6211 56.3522 25.7081 56.112 25.882C55.8801 26.0559 55.7642 26.3002 55.7642 26.6149C55.7642 26.8551 55.8387 27.0455 55.9878 27.1863C56.1368 27.3271 56.3604 27.4472 56.6586 27.5466C56.9567 27.646 57.3294 27.7536 57.7766 27.8696C58.3563 28.0104 58.8573 28.1843 59.2797 28.3913C59.7103 28.5901 60.0375 28.8551 60.2611 29.1863C60.4929 29.5093 60.6089 29.94 60.6089 30.4783C60.6089 30.9503 60.5219 31.3561 60.348 31.6957C60.1741 32.0269 59.9339 32.2961 59.6275 32.5031C59.3211 32.7101 58.9733 32.8634 58.584 32.9627C58.1948 33.0538 57.7807 33.0994 57.3418 33.0994C56.9029 33.0994 56.464 33.0538 56.025 32.9627C55.5861 32.8716 55.1638 32.7433 54.758 32.5776C54.3522 32.4037 53.9795 32.1967 53.6399 31.9565L54.3977 30.4783C54.4722 30.5528 54.6047 30.6522 54.7952 30.7764C54.9857 30.8923 55.2176 31.0124 55.4909 31.1366C55.7642 31.2526 56.0623 31.352 56.3853 31.4348C56.7083 31.5176 57.0354 31.559 57.3667 31.559C57.8304 31.559 58.1824 31.4803 58.4226 31.323C58.6627 31.1656 58.7828 30.942 58.7828 30.6522C58.7828 30.3872 58.6876 30.1801 58.4971 30.0311C58.3066 29.882 58.0416 29.7536 57.7021 29.646C57.3625 29.53 56.9609 29.4058 56.4971 29.2733C55.9422 29.1159 55.4785 28.942 55.1058 28.7516C54.7331 28.5528 54.4557 28.3043 54.2735 28.0062C54.0913 27.7081 54.0002 27.3354 54.0002 26.8882C54.0002 26.2836 54.141 25.7785 54.4226 25.3727C54.7124 24.9586 55.1016 24.648 55.5903 24.441C56.0789 24.2257 56.6213 24.118 57.2176 24.118C57.6317 24.118 58.0209 24.1636 58.3853 24.2547C58.758 24.3458 59.1058 24.4658 59.4288 24.6149C59.7517 24.764 60.0416 24.9255 60.2983 25.0994L59.5406 26.4907ZM64.8886 33V24.1801H68.7892C69.195 24.1801 69.5677 24.2629 69.9072 24.4286C70.255 24.5942 70.5532 24.8178 70.8016 25.0994C71.0584 25.381 71.253 25.6957 71.3855 26.0435C71.5263 26.3913 71.5967 26.7474 71.5967 27.1118C71.5967 27.4845 71.5304 27.8447 71.3979 28.1925C71.2737 28.5321 71.0915 28.8302 70.8513 29.087C70.6112 29.3437 70.3296 29.5424 70.0066 29.6832L72.019 33H70.1308L68.3172 30.0435H66.6029V33H64.8886ZM66.6029 28.5404H68.7519C68.9673 28.5404 69.1577 28.4783 69.3234 28.354C69.489 28.2215 69.6215 28.0476 69.7209 27.8323C69.8203 27.617 69.87 27.3768 69.87 27.1118C69.87 26.8302 69.812 26.5859 69.696 26.3789C69.5801 26.1636 69.431 25.9938 69.2488 25.8696C69.0749 25.7453 68.8844 25.6832 68.6774 25.6832H66.6029V28.5404ZM75.7887 33.1242C75.267 33.1242 74.7949 33.0373 74.3726 32.8634C73.9502 32.6812 73.59 32.4369 73.2918 32.1304C72.9937 31.8157 72.7618 31.4596 72.5962 31.0621C72.4388 30.6563 72.3602 30.2298 72.3602 29.7826C72.3602 29.1615 72.4968 28.5942 72.7701 28.0807C73.0517 27.5673 73.4492 27.1573 73.9626 26.8509C74.4844 26.5362 75.0972 26.3789 75.8011 26.3789C76.5134 26.3789 77.1221 26.5362 77.6272 26.8509C78.1324 27.1573 78.5175 27.5673 78.7825 28.0807C79.0558 28.5859 79.1924 29.1325 79.1924 29.7205C79.1924 29.8199 79.1883 29.9234 79.18 30.0311C79.1717 30.1304 79.1635 30.2133 79.1552 30.2795H74.1241C74.1573 30.6108 74.2525 30.9006 74.4098 31.1491C74.5755 31.3975 74.7825 31.588 75.031 31.7205C75.2877 31.8447 75.561 31.9068 75.8508 31.9068C76.1821 31.9068 76.4927 31.8282 76.7825 31.6708C77.0806 31.5052 77.2835 31.2899 77.3912 31.0248L78.8198 31.4224C78.6624 31.7536 78.4347 32.0476 78.1365 32.3043C77.8467 32.5611 77.503 32.764 77.1055 32.913C76.708 33.0538 76.2691 33.1242 75.7887 33.1242ZM74.0869 29.2236H77.4906C77.4575 28.8923 77.3622 28.6066 77.2049 28.3665C77.0558 28.118 76.857 27.9275 76.6086 27.795C76.3602 27.6542 76.0827 27.5839 75.7763 27.5839C75.4782 27.5839 75.2049 27.6542 74.9564 27.795C74.7163 27.9275 74.5175 28.118 74.3602 28.3665C74.2111 28.6066 74.12 28.8923 74.0869 29.2236ZM82.6661 33.1242C82.2521 33.1242 81.8711 33.0373 81.5233 32.8634C81.1755 32.6812 80.8732 32.4369 80.6165 32.1304C80.3597 31.824 80.161 31.4638 80.0202 31.0497C79.8877 30.6356 79.8214 30.1967 79.8214 29.7329C79.8214 29.2609 79.896 28.8219 80.045 28.4161C80.2024 28.0104 80.4177 27.6542 80.691 27.3478C80.9643 27.0414 81.2873 26.8054 81.6599 26.6398C82.0326 26.4658 82.4343 26.3789 82.8649 26.3789C83.3618 26.3789 83.8007 26.4948 84.1817 26.7267C84.5626 26.9503 84.8732 27.2484 85.1134 27.6211V26.4907H86.5668V35.646H84.9022V31.8571C84.4053 32.7019 83.6599 33.1242 82.6661 33.1242ZM83.2873 31.7081C83.5274 31.7081 83.7428 31.6625 83.9332 31.5714C84.132 31.4803 84.31 31.3561 84.4674 31.1988C84.633 31.0331 84.778 30.8468 84.9022 30.6398V29.0994C84.8608 28.9172 84.7821 28.7474 84.6661 28.5901C84.5585 28.4327 84.426 28.2961 84.2686 28.1801C84.1196 28.0559 83.9581 27.9607 83.7842 27.8944C83.6102 27.8282 83.4363 27.795 83.2624 27.795C83.0057 27.795 82.7697 27.8489 82.5543 27.9565C82.3473 28.0642 82.1651 28.2133 82.0078 28.4037C81.8504 28.5859 81.7303 28.7971 81.6475 29.0373C81.5647 29.2692 81.5233 29.5176 81.5233 29.7826C81.5233 30.1387 81.5978 30.4617 81.7469 30.7516C81.896 31.0414 82.103 31.2733 82.368 31.4472C82.633 31.6211 82.9394 31.7081 83.2873 31.7081ZM88.0176 30.5652V26.4907H89.6822V30.205C89.6822 30.7019 89.7733 31.0787 89.9555 31.3354C90.1376 31.5839 90.4068 31.7081 90.7629 31.7081C90.9782 31.7081 91.1894 31.6667 91.3964 31.5839C91.6118 31.4928 91.8064 31.3602 91.9803 31.1863C92.1625 31.0124 92.3157 30.793 92.4399 30.528V26.4907H94.1045V31.1366C94.1045 31.3106 94.1335 31.4348 94.1915 31.5093C94.2577 31.5839 94.3613 31.6294 94.502 31.646V33C94.3364 33.0248 94.1956 33.0414 94.0797 33.0497C93.972 33.0663 93.8726 33.0745 93.7815 33.0745C93.4834 33.0745 93.2391 33.0083 93.0486 32.8758C92.8664 32.735 92.7588 32.5445 92.7256 32.3043L92.6884 31.7826C92.3985 32.2215 92.0258 32.5569 91.5704 32.7888C91.1149 33.0124 90.6138 33.1242 90.0673 33.1242C89.3964 33.1242 88.8871 32.9089 88.5393 32.4783C88.1915 32.0393 88.0176 31.4017 88.0176 30.5652ZM98.7774 33.1242C98.2556 33.1242 97.7836 33.0373 97.3612 32.8634C96.9389 32.6812 96.5786 32.4369 96.2805 32.1304C95.9823 31.8157 95.7505 31.4596 95.5848 31.0621C95.4275 30.6563 95.3488 30.2298 95.3488 29.7826C95.3488 29.1615 95.4854 28.5942 95.7587 28.0807C96.0403 27.5673 96.4378 27.1573 96.9513 26.8509C97.473 26.5362 98.0859 26.3789 98.7898 26.3789C99.502 26.3789 100.111 26.5362 100.616 26.8509C101.121 27.1573 101.506 27.5673 101.771 28.0807C102.044 28.5859 102.181 29.1325 102.181 29.7205C102.181 29.8199 102.177 29.9234 102.169 30.0311C102.16 30.1304 102.152 30.2133 102.144 30.2795H97.1128C97.1459 30.6108 97.2411 30.9006 97.3985 31.1491C97.5641 31.3975 97.7712 31.588 98.0196 31.7205C98.2763 31.8447 98.5496 31.9068 98.8395 31.9068C99.1707 31.9068 99.4813 31.8282 99.7712 31.6708C100.069 31.5052 100.272 31.2899 100.38 31.0248L101.808 31.4224C101.651 31.7536 101.423 32.0476 101.125 32.3043C100.835 32.5611 100.492 32.764 100.094 32.913C99.6966 33.0538 99.2577 33.1242 98.7774 33.1242ZM97.0755 29.2236H100.479C100.446 28.8923 100.351 28.6066 100.194 28.3665C100.044 28.118 99.8457 27.9275 99.5972 27.795C99.3488 27.6542 99.0714 27.5839 98.7649 27.5839C98.4668 27.5839 98.1935 27.6542 97.9451 27.795C97.7049 27.9275 97.5061 28.118 97.3488 28.3665C97.1997 28.6066 97.1086 28.8923 97.0755 29.2236ZM105.593 33.1242C105.038 33.1242 104.508 33.0331 104.003 32.8509C103.497 32.6687 103.063 32.3996 102.698 32.0435L103.295 30.9627C103.684 31.2774 104.065 31.5093 104.437 31.6584C104.818 31.8075 105.183 31.882 105.531 31.882C105.854 31.882 106.11 31.824 106.301 31.7081C106.5 31.5921 106.599 31.4182 106.599 31.1863C106.599 31.029 106.545 30.9089 106.437 30.8261C106.33 30.735 106.172 30.6563 105.965 30.5901C105.767 30.5238 105.522 30.4493 105.232 30.3665C104.752 30.2091 104.35 30.0559 104.027 29.9068C103.704 29.7578 103.46 29.5714 103.295 29.3478C103.137 29.1159 103.059 28.8219 103.059 28.4658C103.059 28.0352 103.166 27.6667 103.382 27.3602C103.605 27.0455 103.912 26.8012 104.301 26.6273C104.698 26.4534 105.162 26.3665 105.692 26.3665C106.156 26.3665 106.595 26.441 107.009 26.5901C107.423 26.7308 107.8 26.9627 108.139 27.2857L107.468 28.3416C107.137 28.0849 106.822 27.8986 106.524 27.7826C106.226 27.6584 105.924 27.5963 105.618 27.5963C105.444 27.5963 105.278 27.617 105.121 27.6584C104.972 27.6998 104.847 27.7702 104.748 27.8696C104.657 27.9607 104.611 28.0932 104.611 28.2671C104.611 28.4244 104.653 28.5487 104.736 28.6398C104.827 28.7226 104.959 28.7971 105.133 28.8634C105.315 28.9296 105.535 29.0041 105.791 29.087C106.313 29.236 106.752 29.3892 107.108 29.5466C107.473 29.7039 107.746 29.8986 107.928 30.1304C108.11 30.354 108.201 30.6646 108.201 31.0621C108.201 31.7081 107.965 32.2133 107.493 32.5776C107.021 32.942 106.388 33.1242 105.593 33.1242ZM113.198 32.6646C113.057 32.7226 112.887 32.7888 112.688 32.8634C112.49 32.9379 112.274 32.9959 112.043 33.0373C111.819 33.087 111.591 33.1118 111.359 33.1118C111.053 33.1118 110.771 33.058 110.515 32.9503C110.258 32.8427 110.051 32.6729 109.893 32.441C109.744 32.2008 109.67 31.8903 109.67 31.5093V27.7702H108.813V26.4907H109.67V24.3789H111.334V26.4907H112.701V27.7702H111.334V30.9503C111.343 31.1739 111.405 31.3354 111.521 31.4348C111.637 31.5342 111.782 31.5839 111.956 31.5839C112.129 31.5839 112.299 31.5549 112.465 31.4969C112.631 31.4389 112.763 31.3892 112.862 31.3478L113.198 32.6646ZM116.462 33.1242C115.907 33.1242 115.377 33.0331 114.872 32.8509C114.367 32.6687 113.932 32.3996 113.568 32.0435L114.164 30.9627C114.553 31.2774 114.934 31.5093 115.307 31.6584C115.688 31.8075 116.052 31.882 116.4 31.882C116.723 31.882 116.98 31.824 117.17 31.7081C117.369 31.5921 117.468 31.4182 117.468 31.1863C117.468 31.029 117.415 30.9089 117.307 30.8261C117.199 30.735 117.042 30.6563 116.835 30.5901C116.636 30.5238 116.392 30.4493 116.102 30.3665C115.622 30.2091 115.22 30.0559 114.897 29.9068C114.574 29.7578 114.33 29.5714 114.164 29.3478C114.007 29.1159 113.928 28.8219 113.928 28.4658C113.928 28.0352 114.036 27.6667 114.251 27.3602C114.475 27.0455 114.781 26.8012 115.17 26.6273C115.568 26.4534 116.032 26.3665 116.562 26.3665C117.025 26.3665 117.464 26.441 117.878 26.5901C118.292 26.7308 118.669 26.9627 119.009 27.2857L118.338 28.3416C118.007 28.0849 117.692 27.8986 117.394 27.7826C117.096 27.6584 116.794 27.5963 116.487 27.5963C116.313 27.5963 116.148 27.617 115.99 27.6584C115.841 27.6998 115.717 27.7702 115.618 27.8696C115.526 27.9607 115.481 28.0932 115.481 28.2671C115.481 28.4244 115.522 28.5487 115.605 28.6398C115.696 28.7226 115.829 28.7971 116.003 28.8634C116.185 28.9296 116.404 29.0041 116.661 29.087C117.183 29.236 117.622 29.3892 117.978 29.5466C118.342 29.7039 118.615 29.8986 118.798 30.1304C118.98 30.354 119.071 30.6646 119.071 31.0621C119.071 31.7081 118.835 32.2133 118.363 32.5776C117.891 32.942 117.257 33.1242 116.462 33.1242ZM129.581 25.6832H126.761V33H125.059V25.6832H122.24V24.1801H129.581V25.6832ZM133.772 27.9317C133.267 27.9317 132.815 28.0311 132.418 28.2298C132.02 28.4203 131.734 28.6977 131.561 29.0621V33H129.896V26.4907H131.424V27.882C131.656 27.4348 131.95 27.0828 132.306 26.8261C132.662 26.5694 133.039 26.4286 133.436 26.4037C133.527 26.4037 133.598 26.4037 133.648 26.4037C133.697 26.4037 133.739 26.4079 133.772 26.4161V27.9317ZM134.216 31.0745C134.216 30.6522 134.332 30.2836 134.564 29.9689C134.804 29.646 135.136 29.3975 135.558 29.2236C135.98 29.0497 136.465 28.9627 137.011 28.9627C137.285 28.9627 137.562 28.9834 137.844 29.0248C138.125 29.0663 138.37 29.1325 138.577 29.2236V28.8758C138.577 28.4617 138.452 28.1429 138.204 27.9193C137.964 27.6957 137.603 27.5839 137.123 27.5839C136.767 27.5839 136.428 27.646 136.105 27.7702C135.782 27.8944 135.442 28.0766 135.086 28.3168L134.552 27.2236C134.982 26.942 135.421 26.7308 135.868 26.5901C136.324 26.4493 136.8 26.3789 137.297 26.3789C138.225 26.3789 138.945 26.6108 139.459 27.0745C139.98 27.5383 140.241 28.2008 140.241 29.0621V31.1366C140.241 31.3106 140.27 31.4348 140.328 31.5093C140.394 31.5839 140.498 31.6294 140.639 31.646V33C140.49 33.0248 140.353 33.0455 140.229 33.0621C140.113 33.0787 140.013 33.087 139.931 33.087C139.599 33.087 139.347 33.0124 139.173 32.8634C139.007 32.7143 138.904 32.5321 138.862 32.3168L138.825 31.9814C138.543 32.3458 138.191 32.6273 137.769 32.8261C137.347 33.0248 136.916 33.1242 136.477 33.1242C136.047 33.1242 135.657 33.0373 135.309 32.8634C134.97 32.6812 134.701 32.4369 134.502 32.1304C134.312 31.8157 134.216 31.4638 134.216 31.0745ZM138.266 31.4099C138.357 31.3106 138.432 31.2112 138.49 31.1118C138.548 31.0124 138.577 30.9213 138.577 30.8385V30.1801C138.378 30.0973 138.162 30.0352 137.931 29.9938C137.699 29.9441 137.479 29.9193 137.272 29.9193C136.842 29.9193 136.485 30.0145 136.204 30.205C135.931 30.3872 135.794 30.6315 135.794 30.9379C135.794 31.1035 135.84 31.2609 135.931 31.4099C136.022 31.559 136.154 31.6791 136.328 31.7702C136.502 31.8613 136.709 31.9068 136.949 31.9068C137.198 31.9068 137.442 31.8613 137.682 31.7702C137.922 31.6708 138.117 31.5507 138.266 31.4099ZM146.244 33L144.343 30.1925L143.461 31.0621V33H141.797V23.9317H143.461V29.4224L146.082 26.5031H147.846L145.424 29.2609L148.02 33H146.244ZM151.403 33.1242C150.881 33.1242 150.409 33.0373 149.986 32.8634C149.564 32.6812 149.204 32.4369 148.906 32.1304C148.608 31.8157 148.376 31.4596 148.21 31.0621C148.053 30.6563 147.974 30.2298 147.974 29.7826C147.974 29.1615 148.111 28.5942 148.384 28.0807C148.666 27.5673 149.063 27.1573 149.576 26.8509C150.098 26.5362 150.711 26.3789 151.415 26.3789C152.127 26.3789 152.736 26.5362 153.241 26.8509C153.746 27.1573 154.131 27.5673 154.396 28.0807C154.67 28.5859 154.806 29.1325 154.806 29.7205C154.806 29.8199 154.802 29.9234 154.794 30.0311C154.786 30.1304 154.777 30.2133 154.769 30.2795H149.738C149.771 30.6108 149.866 30.9006 150.024 31.1491C150.189 31.3975 150.396 31.588 150.645 31.7205C150.902 31.8447 151.175 31.9068 151.465 31.9068C151.796 31.9068 152.106 31.8282 152.396 31.6708C152.694 31.5052 152.897 31.2899 153.005 31.0248L154.434 31.4224C154.276 31.7536 154.049 32.0476 153.75 32.3043C153.461 32.5611 153.117 32.764 152.719 32.913C152.322 33.0538 151.883 33.1242 151.403 33.1242ZM149.701 29.2236H153.104C153.071 28.8923 152.976 28.6066 152.819 28.3665C152.67 28.118 152.471 27.9275 152.222 27.795C151.974 27.6542 151.697 27.5839 151.39 27.5839C151.092 27.5839 150.819 27.6542 150.57 27.795C150.33 27.9275 150.131 28.118 149.974 28.3665C149.825 28.6066 149.734 28.8923 149.701 29.2236ZM159.696 27.9317C159.191 27.9317 158.74 28.0311 158.342 28.2298C157.945 28.4203 157.659 28.6977 157.485 29.0621V33H155.82V26.4907H157.348V27.882C157.58 27.4348 157.874 27.0828 158.23 26.8261C158.586 26.5694 158.963 26.4286 159.361 26.4037C159.452 26.4037 159.522 26.4037 159.572 26.4037C159.622 26.4037 159.663 26.4079 159.696 26.4161V27.9317Z" fill="#181818"/>
<path d="M49 102.451L52.9635 107.602L54.7927 98.7212L56.7745 103.517L58.7562 100.142L60.7379 101.208L62.8721 104.583L65.0063 101.208L68.9697 105.471L70.9514 102.451L72.9332 105.471L74.8387 105.915L76.9728 102.007L80.9363 108.224H83.3754L86.9577 107.513L88.8632 104.583L90.9974 102.007L95.1133 102.451L98.6956 102.007L101.135 99.5205L102.964 101.208H105.555L107.309 102.007L111.12 103.162L113.101 105.471H115.083L117.065 108.757L119.123 110.177L123.162 109.289L125.068 110.621L131.089 106.27L133.3 106.714L137.187 103.162H139.321L145.114 103.872L147.553 96.5899L149.458 83.8016L151.44 86.1106L155.404 85.2225L157.461 77.0522L159.367 73.1447L161.196 71.8126L163.788 67.2834L165.465 56.9817L167.446 57.6034L169.428 55.6496L171.562 55.2055L175.526 61.4221L177.431 58.0474L179.489 58.7579L185.511 53.2518H187.568L193.59 46.5024L195.648 40.3747L197.706 43.3053L203.651 42.062L205.556 37" stroke="#007C4D" stroke-width="0.887006"/>
<path d="M53.4072 108.046L49.4437 102.895V129.692H206V37.4435L204.095 42.5055L198.15 43.7488L196.092 40.8182L194.034 46.9459L188.012 53.6953H185.954L179.933 59.2013L177.875 58.4909L175.969 61.8656L172.006 55.649L169.872 56.0931L167.89 58.0468L165.908 57.4252L164.231 67.7269L161.64 72.256L159.811 73.5882L157.905 77.4957L155.847 85.666L151.884 86.5541L149.902 84.2451L147.997 97.0334L145.558 104.316L139.765 103.605H137.631L133.743 107.157L131.533 106.713L125.512 111.065L123.606 109.733L119.566 110.621L117.508 109.2L115.527 105.914H113.545L111.563 103.605L107.752 102.451L105.999 101.651H103.408L101.578 99.964L99.1394 102.451L95.557 102.895L91.4411 102.451L89.3069 105.026L87.4014 107.957L83.8191 108.667H81.38L77.4166 102.451L75.2824 106.358L73.3769 105.914L71.3952 102.895L69.4134 105.914L65.45 101.651L63.3158 105.026L61.1817 101.651L59.1999 100.586L57.2182 103.96L55.2365 99.1647L53.4072 108.046Z" fill="url(#paint0_linear_101_165)"/>
<path d="M49 130.451L52.9635 135.602L54.7927 126.721L56.7745 131.517L58.7562 128.142L60.7379 129.208L62.8721 132.583L65.0063 129.208L68.9697 133.471L70.9514 130.451L72.9332 133.471L74.8387 133.915L76.9728 130.007L80.9363 136.224H83.3754L86.9577 135.513L88.8632 132.583L90.9974 130.007L95.1133 130.451L98.6956 130.007L101.135 127.521L102.964 129.208H105.555L107.309 130.007L111.12 131.162L113.101 133.471H115.083L117.065 136.757L119.123 138.177L123.162 137.289L125.068 138.621L131.089 134.27L133.3 134.714L137.187 131.162H139.321L145.114 131.872L147.553 124.59L149.458 111.802L151.44 114.111L155.404 113.223L157.461 105.052L159.367 101.145L161.196 99.8126L163.788 95.2834L165.465 84.9817L167.446 85.6034L169.428 83.6496L171.562 83.2055L175.526 89.4221L177.431 86.0474L179.489 86.7579L185.511 81.2518H187.568L193.59 74.5024L195.648 68.3747L197.706 71.3053L203.651 70.062L205.556 65" stroke="#FF0004" stroke-width="0.887006"/>
<path d="M53.4072 136.046L49.4437 130.895V157.692H206V65.4435L204.095 70.5055L198.15 71.7488L196.092 68.8182L194.034 74.9459L188.012 81.6953H185.954L179.933 87.2013L177.875 86.4909L175.969 89.8656L172.006 83.649L169.872 84.0931L167.89 86.0468L165.908 85.4252L164.231 95.7269L161.64 100.256L159.811 101.588L157.905 105.496L155.847 113.666L151.884 114.554L149.902 112.245L147.997 125.033L145.558 132.316L139.765 131.605H137.631L133.743 135.157L131.533 134.713L125.512 139.065L123.606 137.733L119.566 138.621L117.508 137.2L115.527 133.914H113.545L111.563 131.605L107.752 130.451L105.999 129.651H103.408L101.578 127.964L99.1394 130.451L95.557 130.895L91.4411 130.451L89.3069 133.026L87.4014 135.957L83.8191 136.667H81.38L77.4166 130.451L75.2824 134.358L73.3769 133.914L71.3952 130.895L69.4134 133.914L65.45 129.651L63.3158 133.026L61.1817 129.651L59.1999 128.586L57.2182 131.96L55.2365 127.165L53.4072 136.046Z" fill="url(#paint1_linear_101_165)"/>
</g>
<defs>
<filter id="filter0_d_101_165" x="0" y="0" width="285" height="195" filterUnits="userSpaceOnUse" color-interpolation-filters="sRGB">
<feFlood flood-opacity="0" result="BackgroundImageFix"/>
<feColorMatrix in="SourceAlpha" type="matrix" values="0 0 0 0 0 0 0 0 0 0 0 0 0 0 0 0 0 0 127 0" result="hardAlpha"/>
<feOffset dy="4"/>
<feGaussianBlur stdDeviation="7.5"/>
<feComposite in2="hardAlpha" operator="out"/>
<feColorMatrix type="matrix" values="0 0 0 0 0.564706 0 0 0 0 0.572549 0 0 0 0 0.690196 0 0 0 0.21 0"/>
<feBlend mode="normal" in2="BackgroundImageFix" result="effect1_dropShadow_101_165"/>
<feBlend mode="normal" in="SourceGraphic" in2="effect1_dropShadow_101_165" result="shape"/>
</filter>
<linearGradient id="paint0_linear_101_165" x1="127.918" y1="61.5063" x2="127.722" y2="132.353" gradientUnits="userSpaceOnUse">
<stop stop-color="#007C4D" stop-opacity="0.2"/>
<stop offset="1" stop-color="#189264" stop-opacity="0"/>
</linearGradient>
<linearGradient id="paint1_linear_101_165" x1="127.918" y1="89.5063" x2="127.722" y2="160.353" gradientUnits="userSpaceOnUse">
<stop stop-color="#FF0004" stop-opacity="0.25"/>
<stop offset="1" stop-color="#FF0004" stop-opacity="0"/>
</linearGradient>
</defs>
</svg>
