<svg width="446" height="473" viewBox="0 0 446 473" fill="none" xmlns="http://www.w3.org/2000/svg">
<circle cx="232.954" cy="255.633" r="204.198" stroke="#DDDDED" stroke-width="2.12338" stroke-dasharray="5.66 5.66"/>
<circle cx="232.954" cy="255.632" r="154.653" stroke="#DDDDED" stroke-width="2.12338" stroke-dasharray="5.66 5.66"/>
<circle cx="368.143" cy="77.9768" r="77.8571" fill="#3A45DA"/>
<circle cx="386.545" cy="217.412" r="10.6169" fill="#25D68B"/>
<circle cx="325.675" cy="94.256" r="10.6169" fill="#4651E6"/>
<circle cx="403.532" cy="54.6197" r="7.07792" fill="#4651E6"/>
<circle cx="155.097" cy="31.2623" r="8.49351" fill="#EC844A"/>
<circle cx="89.9805" cy="387.282" r="17.6948" fill="#4A81EC"/>
<g clip-path="url(#clip0_25_260)">
<path d="M368.143 39.4568C366.592 39.4568 365.1 39.9233 363.827 40.8058C363.451 41.0667 363.356 41.5855 363.614 41.9646C363.873 42.3437 364.388 42.4395 364.765 42.1787C365.76 41.4883 366.928 41.1233 368.143 41.1233C371.433 41.1233 374.11 43.8204 374.11 47.1357C374.11 50.4509 371.433 53.1481 368.143 53.1481C364.852 53.1481 362.175 50.4509 362.175 47.1357C362.175 46.1577 362.401 45.2254 362.845 44.3648C363.056 43.9565 362.898 43.4534 362.493 43.241C362.088 43.0288 361.589 43.1873 361.378 43.5956C360.817 44.6807 360.521 45.9049 360.521 47.1357C360.521 51.3699 363.94 54.8147 368.143 54.8147C372.345 54.8147 375.764 51.3699 375.764 47.1357C375.764 42.9015 372.345 39.4568 368.143 39.4568Z" fill="white"/>
<path d="M396.391 84.6089L388.229 64.8499C388.101 64.5393 387.8 64.3369 387.466 64.3369H379.332C380.914 62.1805 382.231 60.0327 383.259 57.9238C385.082 54.1865 386.006 50.5569 386.006 47.1359C386.006 37.2123 377.993 29.1389 368.143 29.1389C358.294 29.1389 350.281 37.2123 350.281 47.1357C350.281 50.5568 351.205 54.1865 353.027 57.9237C354.056 60.0326 355.372 62.1805 356.954 64.3368H348.821C348.487 64.3368 348.185 64.5393 348.057 64.8498L342.495 78.314C342.32 78.7389 342.519 79.2266 342.941 79.4033C343.045 79.4469 343.153 79.4676 343.258 79.4676C343.583 79.4676 343.89 79.2745 344.022 78.9543L344.816 77.0331H350.446L347.528 84.0958H341.899L342.744 82.0484C342.92 81.6235 342.72 81.1358 342.299 80.959C341.877 80.782 341.393 80.9833 341.217 81.408L339.895 84.6089C339.789 84.8661 339.817 85.1598 339.971 85.3914C340.124 85.6231 340.382 85.7623 340.659 85.7623H395.628C395.904 85.7623 396.163 85.6231 396.316 85.3914C396.469 85.1598 396.498 84.8661 396.391 84.6089ZM351.935 47.1357C351.935 38.1311 359.206 30.8053 368.143 30.8053C377.081 30.8053 384.352 38.1312 384.352 47.1357C384.352 50.9117 383.05 56.9456 377.026 64.6349C377.02 64.6421 377.014 64.6497 377.008 64.6571C376.701 65.0494 376.381 65.4459 376.048 65.8468C372.738 69.835 369.388 72.7472 368.143 73.7819C366.902 72.7508 363.568 69.8531 360.26 65.8726C359.919 65.4622 359.592 65.0564 359.277 64.6549C359.272 64.6485 359.267 64.6419 359.262 64.6356C353.238 56.9469 351.935 50.9131 351.935 47.1357ZM349.372 66.0033H355.002L352.949 70.9742H347.319L349.372 66.0033ZM354.208 84.0959L359.377 71.5826L374.088 84.0959H354.208ZM376.652 84.0959L359.581 69.5751C359.38 69.4036 359.109 69.3393 358.853 69.4019C358.597 69.4644 358.386 69.6463 358.285 69.8915L352.417 84.0958H349.32L352.449 76.52C352.555 76.2628 352.527 75.9692 352.374 75.7375C352.22 75.5058 351.962 75.3666 351.686 75.3666H345.505L346.631 72.6405H353.5C353.834 72.6405 354.136 72.438 354.264 72.1275L356.794 66.0032H358.229C358.478 66.3161 358.731 66.6292 358.991 66.9422C363.259 72.077 367.46 75.3737 367.637 75.5116C367.786 75.6278 367.965 75.6858 368.143 75.6858C368.322 75.6858 368.5 75.6277 368.649 75.5116C368.747 75.4358 370.06 74.4047 371.931 72.6406H381.296C381.753 72.6406 382.123 72.2676 382.123 71.8074C382.123 71.3472 381.753 70.9742 381.296 70.9742H373.635C374.782 69.8126 376.035 68.4583 377.295 66.9423C377.555 66.6293 377.809 66.3164 378.058 66.0033H386.914L388.968 70.9742H384.604C384.147 70.9742 383.777 71.3472 383.777 71.8074C383.777 72.2676 384.147 72.6406 384.604 72.6406H389.656L390.782 75.3667H373.743C373.398 75.3667 373.089 75.5826 372.968 75.9084C372.848 76.2342 372.94 76.6013 373.201 76.8292L381.51 84.0959H376.652ZM384.033 84.0959L375.957 77.0332H391.471L394.388 84.0959H384.033Z" fill="white"/>
</g>
<path d="M362.473 105.401L359.725 115.774H356.715L354.838 108.439H354.78L352.912 115.774H349.942L347.184 105.401H350.029L351.596 113.094H351.655L353.493 105.401H356.203L358.051 113.094H358.109L359.686 105.401H362.473ZM368.472 107.268C367.234 107.268 366.344 108.207 366.247 109.504H370.65C370.592 108.178 369.73 107.268 368.472 107.268ZM370.688 112.6H373.282C372.972 114.632 371.114 115.997 368.55 115.997C365.357 115.997 363.441 113.955 363.441 110.636C363.441 107.326 365.376 105.178 368.443 105.178C371.463 105.178 373.369 107.22 373.369 110.374V111.236H366.218V111.41C366.218 112.89 367.156 113.907 368.598 113.907C369.634 113.907 370.427 113.394 370.688 112.6ZM381.391 115.939C379.871 115.939 378.71 115.203 378.139 113.994H378.081V115.774H375.294V101.81H378.12V107.2H378.178C378.749 105.972 379.9 105.236 381.381 105.236C383.994 105.236 385.6 107.239 385.6 110.587C385.6 113.926 384.003 115.939 381.391 115.939ZM380.413 107.5C379.049 107.5 378.11 108.729 378.11 110.587C378.11 112.465 379.039 113.665 380.413 113.665C381.826 113.665 382.707 112.484 382.707 110.587C382.707 108.7 381.816 107.5 380.413 107.5Z" fill="white"/>
<circle cx="66.5245" cy="179.496" r="65.4725" fill="#007C4D"/>
<circle cx="26.5864" cy="162.473" r="5.89266" fill="#0B8758"/>
<circle cx="94.678" cy="203.067" r="17.0232" fill="#0B8758"/>
<path d="M21.8608 204.7H24.0935C24.2009 205.613 25.1523 206.212 26.3799 206.212C27.6152 206.212 28.4592 205.621 28.4592 204.808C28.4592 204.086 27.9298 203.687 26.5948 203.388L25.1523 203.074C23.1114 202.636 22.1063 201.6 22.1063 199.981C22.1063 197.941 23.871 196.59 26.3416 196.59C28.9195 196.59 30.5385 197.918 30.5768 199.92H28.4055C28.3288 198.984 27.5078 198.416 26.3492 198.416C25.206 198.416 24.4388 198.961 24.4388 199.782C24.4388 200.465 24.9759 200.848 26.2495 201.14L27.5922 201.424C29.8096 201.9 30.7763 202.851 30.7763 204.539C30.7763 206.687 29.0346 208.045 26.2879 208.045C23.6255 208.045 21.9298 206.779 21.8608 204.7ZM35.5023 206.365C36.4767 206.365 37.2823 205.728 37.2823 204.838V204.24L35.5483 204.347C34.712 204.409 34.2363 204.784 34.2363 205.368C34.2363 205.981 34.7427 206.365 35.5023 206.365ZM34.7657 207.984C33.2005 207.984 32.0113 206.971 32.0113 205.49C32.0113 203.994 33.1622 203.127 35.2107 203.004L37.2823 202.882V202.337C37.2823 201.57 36.7453 201.125 35.9013 201.125C35.065 201.125 34.5356 201.539 34.4281 202.145H32.3796C32.464 200.549 33.822 199.452 36.001 199.452C38.111 199.452 39.4844 200.542 39.4844 202.199V207.854H37.3207V206.595H37.2747C36.8143 207.47 35.7939 207.984 34.7657 207.984ZM48.7218 202.69H46.6426C46.5121 201.823 45.9367 201.209 45.016 201.209C43.9111 201.209 43.2206 202.145 43.2206 203.733C43.2206 205.352 43.9111 206.273 45.0236 206.273C45.9213 206.273 46.5045 205.736 46.6426 204.838H48.7295C48.6144 206.779 47.1643 208.03 45.0006 208.03C42.5224 208.03 40.9495 206.419 40.9495 203.733C40.9495 201.094 42.5224 199.452 44.9853 199.452C47.2103 199.452 48.6221 200.825 48.7218 202.69ZM50.1256 207.854V199.629H52.2893V201.109H52.3353C52.6268 200.066 53.3251 199.498 54.2918 199.498C54.5527 199.498 54.7752 199.536 54.9286 199.582V201.554C54.7445 201.478 54.4376 201.424 54.1153 201.424C53.0105 201.424 52.366 202.099 52.366 203.258V207.854H50.1256ZM59.5779 201.109C58.5958 201.109 57.8899 201.854 57.8132 202.882H61.3042C61.2582 201.831 60.5753 201.109 59.5779 201.109ZM61.3349 205.337H63.3912C63.1456 206.948 61.6725 208.03 59.6393 208.03C57.1073 208.03 55.5882 206.411 55.5882 203.779C55.5882 201.155 57.1227 199.452 59.5549 199.452C61.9487 199.452 63.4602 201.071 63.4602 203.572V204.255H57.7902V204.393C57.7902 205.567 58.5344 206.373 59.6776 206.373C60.4986 206.373 61.1277 205.966 61.3349 205.337ZM67.9867 207.984C65.9305 207.984 64.6338 206.357 64.6338 203.726C64.6338 201.117 65.9381 199.498 68.0021 199.498C69.1913 199.498 70.112 200.127 70.511 201.04H70.557V196.782H72.7974V207.854H70.5877V206.442H70.5493C70.1504 207.347 69.199 207.984 67.9867 207.984ZM68.7463 201.293C67.6184 201.293 66.9279 202.237 66.9279 203.741C66.9279 205.253 67.6184 206.181 68.7463 206.181C69.8588 206.181 70.5724 205.245 70.5724 203.741C70.5724 202.245 69.8588 201.293 68.7463 201.293ZM81.7277 201.109C80.7456 201.109 80.0397 201.854 79.963 202.882H83.454C83.4079 201.831 82.7251 201.109 81.7277 201.109ZM83.4847 205.337H85.5409C85.2954 206.948 83.8223 208.03 81.789 208.03C79.2571 208.03 77.7379 206.411 77.7379 203.779C77.7379 201.155 79.2724 199.452 81.7046 199.452C84.0985 199.452 85.61 201.071 85.61 203.572V204.255H79.9399V204.393C79.9399 205.567 80.6842 206.373 81.8274 206.373C82.6484 206.373 83.2775 205.966 83.4847 205.337ZM88.0112 210.9C87.9345 210.9 87.2363 210.892 87.1672 210.877V209.15C87.2363 209.166 87.6429 209.166 87.7273 209.166C88.5483 209.166 88.9549 208.905 89.1084 208.252C89.1084 208.222 89.1928 207.892 89.1774 207.861L86.3155 199.629H88.7784L90.5278 206.058H90.5661L92.3155 199.629H94.6786L91.8475 208.038C91.1416 210.148 90.1135 210.9 88.0112 210.9ZM99.2665 201.109C98.2844 201.109 97.5786 201.854 97.5018 202.882H100.993C100.947 201.831 100.264 201.109 99.2665 201.109ZM101.024 205.337H103.08C102.834 206.948 101.361 208.03 99.3279 208.03C96.796 208.03 95.2768 206.411 95.2768 203.779C95.2768 201.155 96.8113 199.452 99.2435 199.452C101.637 199.452 103.149 201.071 103.149 203.572V204.255H97.4788V204.393C97.4788 205.567 98.2231 206.373 99.3663 206.373C100.187 206.373 100.816 205.966 101.024 205.337ZM104.484 202.045C104.484 200.48 105.842 199.452 107.952 199.452C110.015 199.452 111.358 200.496 111.389 202.091H109.325C109.279 201.432 108.75 201.025 107.921 201.025C107.146 201.025 106.64 201.378 106.64 201.907C106.64 202.314 106.992 202.59 107.714 202.759L109.287 203.097C110.936 203.465 111.604 204.117 111.604 205.345C111.604 206.963 110.115 208.03 107.944 208.03C105.75 208.03 104.399 206.971 104.276 205.368H106.463C106.57 206.058 107.115 206.457 108.005 206.457C108.857 206.457 109.371 206.12 109.371 205.582C109.371 205.168 109.095 204.938 108.358 204.761L106.839 204.424C105.282 204.071 104.484 203.258 104.484 202.045Z" fill="white"/>
<path d="M88.658 160.715C89.3729 161.717 89.7303 162.219 89.7303 162.961C89.7303 163.702 89.3729 164.204 88.658 165.206C85.4462 169.71 77.2438 179.419 66.2187 179.419C55.1936 179.419 46.9912 169.71 43.7793 165.206C43.0645 164.204 42.7071 163.702 42.7071 162.961C42.7071 162.219 43.0645 161.717 43.7793 160.715C46.9912 156.211 55.1936 146.502 66.2187 146.502C77.2438 146.502 85.4462 156.211 88.658 160.715Z" stroke="white" stroke-width="3.52674"/>
<path d="M73.2722 162.96C73.2722 159.065 70.1143 155.907 66.2187 155.907C62.3232 155.907 59.1653 159.065 59.1653 162.96C59.1653 166.856 62.3232 170.014 66.2187 170.014C70.1143 170.014 73.2722 166.856 73.2722 162.96Z" stroke="white" stroke-width="3.52674"/>
<circle cx="340" cy="379.821" r="71" fill="#FFBB56"/>
<circle cx="358.933" cy="353.788" r="16.5667" fill="#FFCC67"/>
<circle cx="295.428" cy="393.627" r="5.91667" fill="#FFCC67"/>
<path d="M308.565 412.232H303.15V400.004H308.472C310.769 400.004 312.209 401.182 312.209 403.054C312.209 404.393 311.209 405.512 309.913 405.707V405.775C311.574 405.902 312.794 407.114 312.794 408.732C312.794 410.885 311.176 412.232 308.565 412.232ZM305.71 401.91V405.088H307.548C308.913 405.088 309.693 404.487 309.693 403.453C309.693 402.47 309.006 401.91 307.811 401.91H305.71ZM305.71 410.325H307.913C309.387 410.325 310.184 409.698 310.184 408.529C310.184 407.385 309.362 406.775 307.854 406.775H305.71V410.325ZM314.387 412.232V403.148H316.777V404.783H316.828C317.15 403.631 317.921 403.004 318.989 403.004C319.277 403.004 319.522 403.046 319.692 403.097V405.275C319.489 405.19 319.15 405.131 318.794 405.131C317.573 405.131 316.862 405.876 316.862 407.156V412.232H314.387ZM324.92 412.427C322.175 412.427 320.42 410.664 320.42 407.681C320.42 404.741 322.2 402.953 324.92 402.953C327.641 402.953 329.42 404.732 329.42 407.681C329.42 410.673 327.666 412.427 324.92 412.427ZM324.92 410.537C326.132 410.537 326.903 409.512 326.903 407.69C326.903 405.885 326.124 404.843 324.92 404.843C323.717 404.843 322.929 405.885 322.929 407.69C322.929 409.512 323.7 410.537 324.92 410.537ZM343.708 403.148L341.301 412.232H338.665L337.021 405.809H336.971L335.335 412.232H332.733L330.318 403.148H332.81L334.182 409.885H334.233L335.843 403.148H338.216L339.835 409.885H339.886L341.267 403.148H343.708ZM344.818 405.817C344.818 404.088 346.317 402.953 348.648 402.953C350.928 402.953 352.411 404.105 352.444 405.868H350.165C350.114 405.139 349.529 404.69 348.614 404.69C347.758 404.69 347.199 405.08 347.199 405.665C347.199 406.114 347.589 406.419 348.385 406.605L350.122 406.978C351.944 407.385 352.682 408.105 352.682 409.461C352.682 411.249 351.038 412.427 348.639 412.427C346.216 412.427 344.724 411.258 344.589 409.486H347.004C347.123 410.249 347.724 410.69 348.707 410.69C349.648 410.69 350.216 410.317 350.216 409.724C350.216 409.266 349.911 409.012 349.097 408.817L347.419 408.444C345.699 408.054 344.818 407.156 344.818 405.817ZM358.342 404.783C357.258 404.783 356.478 405.605 356.393 406.741H360.249C360.198 405.58 359.444 404.783 358.342 404.783ZM360.283 409.453H362.554C362.283 411.232 360.656 412.427 358.41 412.427C355.614 412.427 353.936 410.639 353.936 407.732C353.936 404.834 355.631 402.953 358.317 402.953C360.961 402.953 362.63 404.741 362.63 407.503V408.258H356.368V408.41C356.368 409.707 357.19 410.597 358.452 410.597C359.359 410.597 360.054 410.147 360.283 409.453ZM364.257 412.232V403.148H366.647V404.783H366.698C367.02 403.631 367.791 403.004 368.859 403.004C369.147 403.004 369.393 403.046 369.562 403.097V405.275C369.359 405.19 369.02 405.131 368.664 405.131C367.443 405.131 366.732 405.876 366.732 407.156V412.232H364.257Z" fill="white"/>
<path d="M320.03 362.724C320.03 353.573 320.03 348.998 322.873 346.155C325.716 343.312 330.292 343.312 339.443 343.312C348.594 343.312 353.169 343.312 356.012 346.155C358.855 348.998 358.855 353.573 358.855 362.724C358.855 371.875 358.855 376.451 356.012 379.294C353.169 382.137 348.594 382.137 339.443 382.137C330.292 382.137 325.716 382.137 322.873 379.294C320.03 376.451 320.03 371.875 320.03 362.724Z" stroke="white" stroke-width="3.06509"/>
<path d="M320.03 356.594H358.855" stroke="white" stroke-width="3.06509" stroke-linejoin="round"/>
<path d="M329.225 350.464H329.244" stroke="white" stroke-width="4.08678" stroke-linecap="round" stroke-linejoin="round"/>
<path d="M337.399 350.464H337.417" stroke="white" stroke-width="4.08678" stroke-linecap="round" stroke-linejoin="round"/>
<path d="M273.443 402.217L262.379 411.102L260.216 397.078L273.443 402.217Z" fill="#BEFFE4"/>
<path d="M313.119 442.908L303.639 453.467L299.235 439.977L313.119 442.908Z" fill="#BEFFE4"/>
<path d="M281.8 49.6255L292.314 59.1555L278.804 63.4957L281.8 49.6255Z" fill="#BEFFE4"/>
<path d="M287.138 107.14L299.351 114.366L286.987 121.329L287.138 107.14Z" fill="#BEFFE4"/>
<defs>
<clipPath id="clip0_25_260">
<rect width="56.6234" height="56.6234" fill="white" transform="translate(339.831 29.1389)"/>
</clipPath>
</defs>
</svg>
