<svg width="366" height="131" viewBox="0 0 366 131" fill="none" xmlns="http://www.w3.org/2000/svg">
<g filter="url(#filter0_d_114_622)">
<rect x="37.627" y="33.1934" width="291.373" height="57.1682" rx="7.37654" fill="#181818" shape-rendering="crispEdges"/>
<rect x="38.088" y="33.6544" width="290.451" height="56.2461" rx="6.9155" stroke="#E7EBFF" stroke-width="0.922067" shape-rendering="crispEdges"/>
<g clip-path="url(#clip0_114_622)">
<path d="M153.137 50.7237C153.09 50.6712 151.396 50.7445 149.921 52.3447C148.447 53.9436 148.674 55.7776 148.707 55.8246C148.74 55.8716 150.809 55.9449 152.13 54.0847C153.451 52.2244 153.184 50.7777 153.137 50.7237ZM157.721 66.9516C157.654 66.8189 154.505 65.2449 154.798 62.2187C155.091 59.1924 157.115 58.3612 157.147 58.2713C157.178 58.1814 156.321 57.1787 155.412 56.6711C154.745 56.3135 154.006 56.1085 153.25 56.0708C153.101 56.0666 152.582 55.9394 151.516 56.2312C150.813 56.4235 149.23 57.0459 148.794 57.0708C148.357 57.0957 147.057 56.3488 145.659 56.151C144.764 55.9781 143.815 56.3322 143.136 56.6047C142.458 56.8758 141.169 57.6475 140.267 59.6987C139.365 61.7484 139.837 64.9959 140.175 66.0056C140.512 67.0153 141.039 68.6667 141.935 69.8728C142.732 71.2337 143.789 72.1784 144.23 72.4993C144.671 72.8201 145.916 73.0331 146.779 72.5919C147.473 72.1659 148.726 71.9211 149.221 71.9391C149.715 71.9571 150.689 72.1521 151.686 72.6846C152.476 72.9571 153.223 72.8437 153.971 72.5394C154.719 72.2337 155.802 71.0747 157.066 68.7248C157.546 67.6321 157.764 67.0411 157.721 66.9516Z" fill="white"/>
<path d="M153.137 50.7237C153.09 50.6712 151.396 50.7445 149.921 52.3447C148.447 53.9436 148.674 55.7776 148.707 55.8246C148.74 55.8716 150.809 55.9449 152.13 54.0847C153.451 52.2244 153.184 50.7777 153.137 50.7237ZM157.721 66.9516C157.654 66.8189 154.505 65.2449 154.798 62.2187C155.091 59.1924 157.115 58.3612 157.147 58.2713C157.178 58.1814 156.321 57.1787 155.412 56.6711C154.745 56.3135 154.006 56.1085 153.25 56.0708C153.101 56.0666 152.582 55.9394 151.516 56.2312C150.813 56.4235 149.23 57.0459 148.794 57.0708C148.357 57.0957 147.057 56.3488 145.659 56.151C144.764 55.9781 143.815 56.3322 143.136 56.6047C142.458 56.8758 141.169 57.6475 140.267 59.6987C139.365 61.7484 139.837 64.9959 140.175 66.0056C140.512 67.0153 141.039 68.6667 141.935 69.8728C142.732 71.2337 143.789 72.1784 144.23 72.4993C144.671 72.8201 145.916 73.0331 146.779 72.5919C147.473 72.1659 148.726 71.9211 149.221 71.9391C149.715 71.9571 150.689 72.1521 151.686 72.6846C152.476 72.9571 153.223 72.8437 153.971 72.5394C154.719 72.2337 155.802 71.0747 157.066 68.7248C157.546 67.6321 157.764 67.0411 157.721 66.9516Z" fill="white"/>
</g>
<path d="M171.954 55.2967V68.7773H169.593V55.2967H171.954ZM187.242 62.0278C187.242 66.1218 184.55 68.9986 180.677 68.9986C176.823 68.9986 174.167 66.1402 174.167 62.0278C174.167 57.9338 176.841 55.057 180.696 55.057C184.55 55.057 187.242 57.9154 187.242 62.0278ZM184.753 62.0278C184.753 59.151 183.167 57.3253 180.696 57.3253C178.224 57.3253 176.638 59.151 176.638 62.0278C176.638 64.9047 178.224 66.7304 180.696 66.7304C183.167 66.7304 184.753 64.8678 184.753 62.0278ZM188.665 59.0588C188.665 56.6983 190.619 55.057 193.459 55.057C196.189 55.057 197.922 56.5692 197.996 59.0034H195.635C195.58 57.8416 194.75 57.1593 193.423 57.1593C191.966 57.1593 191.025 57.8601 191.025 58.985C191.025 59.9439 191.541 60.4787 192.666 60.7369L194.787 61.198C197.092 61.6959 198.217 62.8761 198.217 64.8862C198.217 67.3942 196.262 69.0171 193.293 69.0171C190.417 69.0171 188.536 67.4864 188.48 65.0706H190.841C190.859 66.214 191.781 66.8963 193.293 66.8963C194.861 66.8963 195.857 66.214 195.857 65.0891C195.857 64.1854 195.396 63.6506 194.289 63.4109L192.15 62.9314C189.863 62.4335 188.665 61.1242 188.665 59.0588Z" fill="white"/>
</g>
<defs>
<filter id="filter0_d_114_622" x="0.744263" y="-0.00106192" width="365.139" height="130.934" filterUnits="userSpaceOnUse" color-interpolation-filters="sRGB">
<feFlood flood-opacity="0" result="BackgroundImageFix"/>
<feColorMatrix in="SourceAlpha" type="matrix" values="0 0 0 0 0 0 0 0 0 0 0 0 0 0 0 0 0 0 127 0" result="hardAlpha"/>
<feOffset dy="3.68827"/>
<feGaussianBlur stdDeviation="18.4413"/>
<feComposite in2="hardAlpha" operator="out"/>
<feColorMatrix type="matrix" values="0 0 0 0 0 0 0 0 0 0 0 0 0 0 0 0 0 0 0.1 0"/>
<feBlend mode="normal" in2="BackgroundImageFix" result="effect1_dropShadow_114_622"/>
<feBlend mode="normal" in="SourceGraphic" in2="effect1_dropShadow_114_622" result="shape"/>
</filter>
<clipPath id="clip0_114_622">
<rect width="22.1296" height="22.1296" fill="white" transform="translate(137.671 50.7126)"/>
</clipPath>
</defs>
</svg>
