<svg width="23" height="23" viewBox="0 0 23 23" fill="none" xmlns="http://www.w3.org/2000/svg">
<g clip-path="url(#clip0_114_624)">
<path d="M16.1369 0.723721C16.0899 0.671163 14.3956 0.744468 12.9212 2.34472C11.4468 3.94358 11.6737 5.77757 11.7069 5.8246C11.7401 5.87162 13.8092 5.94493 15.13 4.08466C16.4509 2.22439 16.184 0.777662 16.1369 0.723721ZM20.7205 16.9516C20.6541 16.8189 17.5048 15.2449 17.798 12.2187C18.0913 9.19245 20.1147 8.3612 20.1465 8.2713C20.1784 8.1814 19.3208 7.17865 18.4121 6.67105C17.7448 6.31353 17.0065 6.10851 16.2503 6.07079C16.101 6.06664 15.5823 5.93939 14.5159 6.23123C13.8133 6.42348 12.2297 7.04588 11.794 7.07077C11.3569 7.09567 10.0568 6.34879 8.6585 6.15101C7.76364 5.97812 6.81483 6.3322 6.13573 6.60467C5.45801 6.87575 4.16896 7.64752 3.26718 9.69866C2.36539 11.7484 2.83703 14.9959 3.17451 16.0056C3.51198 17.0153 4.03895 18.6667 4.9352 19.8728C5.73186 21.2337 6.78855 22.1784 7.22976 22.4993C7.67097 22.8201 8.91576 23.0331 9.77881 22.5919C10.4731 22.1659 11.7262 21.9211 12.2214 21.9391C12.7151 21.9571 13.6888 22.1521 14.6861 22.6846C15.4758 22.9571 16.2227 22.8437 16.9709 22.5394C17.7192 22.2337 18.8022 21.0747 20.0663 18.7248C20.5458 17.6321 20.7639 17.0411 20.7205 16.9516Z" fill="white"/>
<path d="M16.1369 0.723721C16.0899 0.671163 14.3956 0.744468 12.9212 2.34472C11.4468 3.94358 11.6737 5.77757 11.7069 5.8246C11.7401 5.87162 13.8092 5.94493 15.13 4.08466C16.4509 2.22439 16.184 0.777662 16.1369 0.723721ZM20.7205 16.9516C20.6541 16.8189 17.5048 15.2449 17.798 12.2187C18.0913 9.19245 20.1147 8.3612 20.1465 8.2713C20.1784 8.1814 19.3208 7.17865 18.4121 6.67105C17.7448 6.31353 17.0065 6.10851 16.2503 6.07079C16.101 6.06664 15.5823 5.93939 14.5159 6.23123C13.8133 6.42348 12.2297 7.04588 11.794 7.07077C11.3569 7.09567 10.0568 6.34879 8.6585 6.15101C7.76364 5.97812 6.81483 6.3322 6.13573 6.60467C5.45801 6.87575 4.16896 7.64752 3.26718 9.69866C2.36539 11.7484 2.83703 14.9959 3.17451 16.0056C3.51198 17.0153 4.03895 18.6667 4.9352 19.8728C5.73186 21.2337 6.78855 22.1784 7.22976 22.4993C7.67097 22.8201 8.91576 23.0331 9.77881 22.5919C10.4731 22.1659 11.7262 21.9211 12.2214 21.9391C12.7151 21.9571 13.6888 22.1521 14.6861 22.6846C15.4758 22.9571 16.2227 22.8437 16.9709 22.5394C17.7192 22.2337 18.8022 21.0747 20.0663 18.7248C20.5458 17.6321 20.7639 17.0411 20.7205 16.9516Z" fill="white"/>
</g>
<defs>
<clipPath id="clip0_114_624">
<rect width="22.1296" height="22.1296" fill="white" transform="translate(0.671143 0.712646)"/>
</clipPath>
</defs>
</svg>
