<svg width="24" height="25" viewBox="0 0 24 25" fill="none" xmlns="http://www.w3.org/2000/svg">
<path fill-rule="evenodd" clip-rule="evenodd" d="M11.5397 22.4687C11.57 22.4862 11.5937 22.4997 11.6105 22.5092L11.6384 22.5248C11.8613 22.6471 12.1378 22.6462 12.3608 22.5252L12.3895 22.5092C12.4063 22.4997 12.43 22.4862 12.4603 22.4687C12.5207 22.4337 12.607 22.3827 12.7155 22.3159C12.9325 22.1823 13.2388 21.9852 13.6046 21.7268C14.3351 21.2108 15.3097 20.4451 16.2865 19.445C18.2307 17.4545 20.25 14.4638 20.25 10.6177C20.25 6.06133 16.5563 2.36768 12 2.36768C7.44365 2.36768 3.75 6.06133 3.75 10.6177C3.75 14.4638 5.76932 17.4545 7.71346 19.445C8.69025 20.4451 9.66491 21.2108 10.3954 21.7268C10.7612 21.9852 11.0675 22.1823 11.2845 22.3159C11.393 22.3827 11.4793 22.4337 11.5397 22.4687ZM12 13.6177C13.6569 13.6177 15 12.2745 15 10.6177C15 8.96082 13.6569 7.61768 12 7.61768C10.3431 7.61768 9 8.96082 9 10.6177C9 12.2745 10.3431 13.6177 12 13.6177Z" fill="white"/>
</svg>
