<svg width="23" height="23" viewBox="0 0 23 23" fill="none" xmlns="http://www.w3.org/2000/svg">
<g clip-path="url(#clip0_114_612)">
<path d="M16.0108 0.723721C15.9638 0.671163 14.2695 0.744468 12.7951 2.34472C11.3207 3.94358 11.5476 5.77757 11.5808 5.8246C11.614 5.87162 13.6831 5.94493 15.0039 4.08466C16.3248 2.22439 16.0579 0.777662 16.0108 0.723721ZM20.5944 16.9516C20.528 16.8189 17.3787 15.2449 17.6719 12.2187C17.9652 9.19245 19.9886 8.3612 20.0204 8.2713C20.0523 8.1814 19.1947 7.17865 18.286 6.67105C17.6187 6.31353 16.8804 6.10851 16.1242 6.07079C15.9749 6.06664 15.4562 5.93939 14.3898 6.23123C13.6872 6.42348 12.1036 7.04588 11.6679 7.07077C11.2308 7.09567 9.93072 6.34879 8.5324 6.15101C7.63754 5.97812 6.68873 6.3322 6.00963 6.60467C5.33191 6.87575 4.04286 7.64752 3.14108 9.69866C2.2393 11.7484 2.71093 14.9959 3.04841 16.0056C3.38589 17.0153 3.91285 18.6667 4.8091 19.8728C5.60576 21.2337 6.66245 22.1784 7.10366 22.4993C7.54487 22.8201 8.78966 23.0331 9.65272 22.5919C10.347 22.1659 11.6001 21.9211 12.0953 21.9391C12.589 21.9571 13.5627 22.1521 14.56 22.6846C15.3497 22.9571 16.0966 22.8437 16.8448 22.5394C17.5931 22.2337 18.6761 21.0747 19.9402 18.7248C20.4197 17.6321 20.6378 17.0411 20.5944 16.9516Z" fill="black"/>
<path d="M16.0108 0.723721C15.9638 0.671163 14.2695 0.744468 12.7951 2.34472C11.3207 3.94358 11.5476 5.77757 11.5808 5.8246C11.614 5.87162 13.6831 5.94493 15.0039 4.08466C16.3248 2.22439 16.0579 0.777662 16.0108 0.723721ZM20.5944 16.9516C20.528 16.8189 17.3787 15.2449 17.6719 12.2187C17.9652 9.19245 19.9886 8.3612 20.0204 8.2713C20.0523 8.1814 19.1947 7.17865 18.286 6.67105C17.6187 6.31353 16.8804 6.10851 16.1242 6.07079C15.9749 6.06664 15.4562 5.93939 14.3898 6.23123C13.6872 6.42348 12.1036 7.04588 11.6679 7.07077C11.2308 7.09567 9.93072 6.34879 8.5324 6.15101C7.63754 5.97812 6.68873 6.3322 6.00963 6.60467C5.33191 6.87575 4.04286 7.64752 3.14108 9.69866C2.2393 11.7484 2.71093 14.9959 3.04841 16.0056C3.38589 17.0153 3.91285 18.6667 4.8091 19.8728C5.60576 21.2337 6.66245 22.1784 7.10366 22.4993C7.54487 22.8201 8.78966 23.0331 9.65272 22.5919C10.347 22.1659 11.6001 21.9211 12.0953 21.9391C12.589 21.9571 13.5627 22.1521 14.56 22.6846C15.3497 22.9571 16.0966 22.8437 16.8448 22.5394C17.5931 22.2337 18.6761 21.0747 19.9402 18.7248C20.4197 17.6321 20.6378 17.0411 20.5944 16.9516Z" fill="black"/>
</g>
<defs>
<clipPath id="clip0_114_612">
<rect width="22.1296" height="22.1296" fill="white" transform="translate(0.5448 0.712646)"/>
</clipPath>
</defs>
</svg>
