<svg width="366" height="131" viewBox="0 0 366 131" fill="none" xmlns="http://www.w3.org/2000/svg">
<g filter="url(#filter0_d_114_621)">
<rect x="37.5005" y="33.1934" width="291.373" height="57.1682" rx="7.37654" fill="white" shape-rendering="crispEdges"/>
<rect x="37.9615" y="33.6544" width="290.451" height="56.2461" rx="6.9155" stroke="#E7EBFF" stroke-width="0.922067" shape-rendering="crispEdges"/>
<g clip-path="url(#clip0_114_621)">
<path d="M153.011 50.7237C152.964 50.6712 151.27 50.7445 149.795 52.3447C148.321 53.9436 148.548 55.7776 148.581 55.8246C148.614 55.8716 150.683 55.9449 152.004 54.0847C153.325 52.2244 153.058 50.7777 153.011 50.7237ZM157.594 66.9516C157.528 66.8189 154.379 65.2449 154.672 62.2187C154.965 59.1924 156.989 58.3612 157.02 58.2713C157.052 58.1814 156.195 57.1787 155.286 56.6711C154.619 56.3135 153.88 56.1085 153.124 56.0708C152.975 56.0666 152.456 55.9394 151.39 56.2312C150.687 56.4235 149.104 57.0459 148.668 57.0708C148.231 57.0957 146.931 56.3488 145.532 56.151C144.638 55.9781 143.689 56.3322 143.01 56.6047C142.332 56.8758 141.043 57.6475 140.141 59.6987C139.239 61.7484 139.711 64.9959 140.048 66.0056C140.386 67.0153 140.913 68.6667 141.809 69.8728C142.606 71.2337 143.662 72.1784 144.104 72.4993C144.545 72.8201 145.79 73.0331 146.653 72.5919C147.347 72.1659 148.6 71.9211 149.095 71.9391C149.589 71.9571 150.563 72.1521 151.56 72.6846C152.35 72.9571 153.097 72.8437 153.845 72.5394C154.593 72.2337 155.676 71.0747 156.94 68.7248C157.42 67.6321 157.638 67.0411 157.594 66.9516Z" fill="black"/>
<path d="M153.011 50.7237C152.964 50.6712 151.27 50.7445 149.795 52.3447C148.321 53.9436 148.548 55.7776 148.581 55.8246C148.614 55.8716 150.683 55.9449 152.004 54.0847C153.325 52.2244 153.058 50.7777 153.011 50.7237ZM157.594 66.9516C157.528 66.8189 154.379 65.2449 154.672 62.2187C154.965 59.1924 156.989 58.3612 157.02 58.2713C157.052 58.1814 156.195 57.1787 155.286 56.6711C154.619 56.3135 153.88 56.1085 153.124 56.0708C152.975 56.0666 152.456 55.9394 151.39 56.2312C150.687 56.4235 149.104 57.0459 148.668 57.0708C148.231 57.0957 146.931 56.3488 145.532 56.151C144.638 55.9781 143.689 56.3322 143.01 56.6047C142.332 56.8758 141.043 57.6475 140.141 59.6987C139.239 61.7484 139.711 64.9959 140.048 66.0056C140.386 67.0153 140.913 68.6667 141.809 69.8728C142.606 71.2337 143.662 72.1784 144.104 72.4993C144.545 72.8201 145.79 73.0331 146.653 72.5919C147.347 72.1659 148.6 71.9211 149.095 71.9391C149.589 71.9571 150.563 72.1521 151.56 72.6846C152.35 72.9571 153.097 72.8437 153.845 72.5394C154.593 72.2337 155.676 71.0747 156.94 68.7248C157.42 67.6321 157.638 67.0411 157.594 66.9516Z" fill="black"/>
</g>
<path d="M171.753 68.7773H169.467V55.2967H171.753L176.106 66.0296L180.458 55.2967H182.781V68.7773H180.495V64.628C180.495 61.9172 180.495 61.1242 180.624 60.1652L177.194 68.7773H175.018L171.606 60.1837C171.735 60.9951 171.753 62.2675 171.753 63.9457V68.7773ZM188.144 69.0171C186.208 69.0171 185.027 67.8922 185.027 66.1771C185.027 64.499 186.245 63.4478 188.402 63.2818L191.131 63.079V62.8761C191.131 61.6405 190.394 61.1426 189.25 61.1426C187.923 61.1426 187.185 61.6959 187.185 62.6548H185.267C185.267 60.6816 186.89 59.3907 189.361 59.3907C191.814 59.3907 193.326 60.7185 193.326 63.2449V68.7773H191.353L191.187 67.4311C190.8 68.3716 189.564 69.0171 188.144 69.0171ZM188.882 67.3205C190.265 67.3205 191.15 66.4906 191.15 65.0891V64.6096L189.25 64.7571C187.849 64.8862 187.314 65.3473 187.314 66.0849C187.314 66.9148 187.867 67.3205 188.882 67.3205ZM195.001 64.2039C195.001 61.3824 196.864 59.3907 199.556 59.3907C202.046 59.3907 203.743 60.7738 203.982 62.9683H201.732C201.474 61.9356 200.718 61.4008 199.649 61.4008C198.21 61.4008 197.251 62.4888 197.251 64.2039C197.251 65.9189 198.136 66.9885 199.575 66.9885C200.7 66.9885 201.493 66.4353 201.732 65.4395H204.001C203.724 67.5602 201.954 69.0171 199.575 69.0171C196.809 69.0171 195.001 67.0992 195.001 64.2039ZM218.308 62.0278C218.308 66.1218 215.615 68.9986 211.743 68.9986C207.888 68.9986 205.233 66.1402 205.233 62.0278C205.233 57.9338 207.907 55.057 211.761 55.057C215.615 55.057 218.308 57.9154 218.308 62.0278ZM215.818 62.0278C215.818 59.151 214.232 57.3253 211.761 57.3253C209.29 57.3253 207.704 59.151 207.704 62.0278C207.704 64.9047 209.29 66.7304 211.761 66.7304C214.232 66.7304 215.818 64.8678 215.818 62.0278ZM219.472 66.0111H221.611C221.63 66.8041 222.22 67.302 223.252 67.302C224.304 67.302 224.875 66.8779 224.875 66.214C224.875 65.753 224.635 65.421 223.824 65.2366L222.183 64.8493C220.542 64.4805 219.749 63.706 219.749 62.2491C219.749 60.4603 221.261 59.3907 223.363 59.3907C225.41 59.3907 226.793 60.5709 226.812 62.3413H224.672C224.654 61.5668 224.138 61.0689 223.271 61.0689C222.386 61.0689 221.869 61.4746 221.869 62.1569C221.869 62.6733 222.275 63.0052 223.05 63.1896L224.691 63.5769C226.221 63.9273 226.996 64.628 226.996 66.0296C226.996 67.8737 225.428 69.0171 223.179 69.0171C220.91 69.0171 219.472 67.8 219.472 66.0111Z" fill="#181818"/>
</g>
<defs>
<filter id="filter0_d_114_621" x="0.617798" y="-0.00106192" width="365.139" height="130.934" filterUnits="userSpaceOnUse" color-interpolation-filters="sRGB">
<feFlood flood-opacity="0" result="BackgroundImageFix"/>
<feColorMatrix in="SourceAlpha" type="matrix" values="0 0 0 0 0 0 0 0 0 0 0 0 0 0 0 0 0 0 127 0" result="hardAlpha"/>
<feOffset dy="3.68827"/>
<feGaussianBlur stdDeviation="18.4413"/>
<feComposite in2="hardAlpha" operator="out"/>
<feColorMatrix type="matrix" values="0 0 0 0 0 0 0 0 0 0 0 0 0 0 0 0 0 0 0.1 0"/>
<feBlend mode="normal" in2="BackgroundImageFix" result="effect1_dropShadow_114_621"/>
<feBlend mode="normal" in="SourceGraphic" in2="effect1_dropShadow_114_621" result="shape"/>
</filter>
<clipPath id="clip0_114_621">
<rect width="22.1296" height="22.1296" fill="white" transform="translate(137.545 50.7126)"/>
</clipPath>
</defs>
</svg>
