<svg width="92" height="27" viewBox="0 0 92 27" fill="none" xmlns="http://www.w3.org/2000/svg">
<g clip-path="url(#clip0_114_620)">
<path d="M16.0108 2.72372C15.9638 2.67116 14.2695 2.74447 12.7951 4.34472C11.3207 5.94358 11.5476 7.77757 11.5808 7.8246C11.614 7.87162 13.6831 7.94493 15.0039 6.08466C16.3248 4.22439 16.0579 2.77766 16.0108 2.72372ZM20.5944 18.9516C20.528 18.8189 17.3787 17.2449 17.6719 14.2187C17.9652 11.1924 19.9886 10.3612 20.0204 10.2713C20.0523 10.1814 19.1947 9.17865 18.286 8.67105C17.6187 8.31353 16.8804 8.10851 16.1242 8.07079C15.9749 8.06664 15.4562 7.93939 14.3898 8.23123C13.6872 8.42348 12.1036 9.04588 11.6679 9.07077C11.2308 9.09567 9.93072 8.34879 8.5324 8.15101C7.63754 7.97812 6.68873 8.3322 6.00963 8.60467C5.33191 8.87575 4.04286 9.64752 3.14108 11.6987C2.2393 13.7484 2.71093 16.9959 3.04841 18.0056C3.38589 19.0153 3.91285 20.6667 4.8091 21.8728C5.60576 23.2337 6.66245 24.1784 7.10366 24.4993C7.54487 24.8201 8.78966 25.0331 9.65272 24.5919C10.347 24.1659 11.6001 23.9211 12.0953 23.9391C12.589 23.9571 13.5627 24.1521 14.56 24.6846C15.3497 24.9571 16.0966 24.8437 16.8448 24.5394C17.5931 24.2337 18.6761 23.0747 19.9402 20.7248C20.4197 19.6321 20.6378 19.0411 20.5944 18.9516Z" fill="black"/>
<path d="M16.0108 2.72372C15.9638 2.67116 14.2695 2.74447 12.7951 4.34472C11.3207 5.94358 11.5476 7.77757 11.5808 7.8246C11.614 7.87162 13.6831 7.94493 15.0039 6.08466C16.3248 4.22439 16.0579 2.77766 16.0108 2.72372ZM20.5944 18.9516C20.528 18.8189 17.3787 17.2449 17.6719 14.2187C17.9652 11.1924 19.9886 10.3612 20.0204 10.2713C20.0523 10.1814 19.1947 9.17865 18.286 8.67105C17.6187 8.31353 16.8804 8.10851 16.1242 8.07079C15.9749 8.06664 15.4562 7.93939 14.3898 8.23123C13.6872 8.42348 12.1036 9.04588 11.6679 9.07077C11.2308 9.09567 9.93072 8.34879 8.5324 8.15101C7.63754 7.97812 6.68873 8.3322 6.00963 8.60467C5.33191 8.87575 4.04286 9.64752 3.14108 11.6987C2.2393 13.7484 2.71093 16.9959 3.04841 18.0056C3.38589 19.0153 3.91285 20.6667 4.8091 21.8728C5.60576 23.2337 6.66245 24.1784 7.10366 24.4993C7.54487 24.8201 8.78966 25.0331 9.65272 24.5919C10.347 24.1659 11.6001 23.9211 12.0953 23.9391C12.589 23.9571 13.5627 24.1521 14.56 24.6846C15.3497 24.9571 16.0966 24.8437 16.8448 24.5394C17.5931 24.2337 18.6761 23.0747 19.9402 20.7248C20.4197 19.6321 20.6378 19.0411 20.5944 18.9516Z" fill="black"/>
</g>
<path d="M34.7535 20.7773H32.4668V7.29672H34.7535L39.1057 18.0296L43.4578 7.29672H45.7814V20.7773H43.4947V16.628C43.4947 13.9172 43.4947 13.1242 43.6238 12.1652L40.1937 20.7773H38.0176L34.606 12.1837C34.7351 12.9951 34.7535 14.2675 34.7535 15.9457V20.7773ZM51.144 21.0171C49.2076 21.0171 48.0274 19.8922 48.0274 18.1771C48.0274 16.499 49.2445 15.4478 51.4021 15.2818L54.1315 15.079V14.8761C54.1315 13.6405 53.3938 13.1426 52.2504 13.1426C50.9227 13.1426 50.185 13.6959 50.185 14.6548H48.2671C48.2671 12.6816 49.89 11.3907 52.3611 11.3907C54.8138 11.3907 56.326 12.7185 56.326 15.2449V20.7773H54.3528L54.1868 19.4311C53.7995 20.3716 52.5639 21.0171 51.144 21.0171ZM51.8816 19.3205C53.2647 19.3205 54.1499 18.4906 54.1499 17.0891V16.6096L52.2504 16.7571C50.8489 16.8862 50.3141 17.3473 50.3141 18.0849C50.3141 18.9148 50.8673 19.3205 51.8816 19.3205ZM58.0014 16.2039C58.0014 13.3824 59.864 11.3907 62.5564 11.3907C65.046 11.3907 66.7426 12.7738 66.9823 14.9683H64.7325C64.4743 13.9356 63.7182 13.4008 62.6486 13.4008C61.2102 13.4008 60.2513 14.4888 60.2513 16.2039C60.2513 17.9189 61.1364 18.9885 62.5749 18.9885C63.6998 18.9885 64.4928 18.4353 64.7325 17.4395H67.0008C66.7242 19.5602 64.9538 21.0171 62.5749 21.0171C59.8087 21.0171 58.0014 19.0992 58.0014 16.2039ZM81.3077 14.0278C81.3077 18.1218 78.6152 20.9986 74.7425 20.9986C70.8883 20.9986 68.2328 18.1402 68.2328 14.0278C68.2328 9.93383 70.9067 7.05698 74.761 7.05698C78.6152 7.05698 81.3077 9.91539 81.3077 14.0278ZM78.8181 14.0278C78.8181 11.151 77.2321 9.32527 74.761 9.32527C72.2899 9.32527 70.7039 11.151 70.7039 14.0278C70.7039 16.9047 72.2899 18.7304 74.761 18.7304C77.2321 18.7304 78.8181 16.8678 78.8181 14.0278ZM82.4719 18.0111H84.6111C84.6296 18.8041 85.2197 19.302 86.2524 19.302C87.3036 19.302 87.8752 18.8779 87.8752 18.214C87.8752 17.753 87.6355 17.421 86.8241 17.2366L85.1828 16.8493C83.5415 16.4805 82.7485 15.706 82.7485 14.2491C82.7485 12.4603 84.2607 11.3907 86.363 11.3907C88.41 11.3907 89.7931 12.5709 89.8116 14.3413H87.6724C87.6539 13.5668 87.1376 13.0689 86.2708 13.0689C85.3857 13.0689 84.8693 13.4746 84.8693 14.1569C84.8693 14.6733 85.275 15.0052 86.0495 15.1896L87.6908 15.5769C89.2215 15.9273 89.996 16.628 89.996 18.0296C89.996 19.8737 88.4285 21.0171 86.1786 21.0171C83.9103 21.0171 82.4719 19.8 82.4719 18.0111Z" fill="#181818"/>
<defs>
<clipPath id="clip0_114_620">
<rect width="22.1296" height="22.1296" fill="white" transform="translate(0.5448 2.71265)"/>
</clipPath>
</defs>
</svg>
