<svg width="67" height="67" viewBox="0 0 67 67" fill="none" xmlns="http://www.w3.org/2000/svg">
<rect x="0.426605" y="0.522461" width="66.3423" height="66.3423" rx="13.0083" fill="#3A45DA"/>
<g clip-path="url(#clip0_54_113)">
<path d="M33.3376 22.0426C32.7856 22.0426 32.3376 21.5946 32.3376 21.0426V18.4332C32.3376 17.8812 32.7856 17.4332 33.3376 17.4332C33.8896 17.4332 34.3376 17.8812 34.3376 18.4332V21.0426C34.3376 21.5946 33.8896 22.0426 33.3376 22.0426Z" fill="white"/>
<path d="M42.0991 25.6719C41.843 25.6719 41.587 25.5746 41.3924 25.3786C41.0017 24.9879 41.0017 24.3546 41.3924 23.9639L43.2377 22.1186C43.6284 21.7279 44.2617 21.7279 44.6524 22.1186C45.0431 22.5092 45.0431 23.1426 44.6524 23.5332L42.8071 25.3786C42.6111 25.5733 42.3551 25.6719 42.0991 25.6719Z" fill="white"/>
<path d="M48.3378 34.4336H45.7284C45.1764 34.4336 44.7284 33.9856 44.7284 33.4336C44.7284 32.8816 45.1764 32.4336 45.7284 32.4336H48.3378C48.8898 32.4336 49.3378 32.8816 49.3378 33.4336C49.3378 33.9856 48.8898 34.4336 48.3378 34.4336Z" fill="white"/>
<path d="M43.9444 45.0403C43.6884 45.0403 43.4324 44.943 43.2377 44.747L41.3924 42.9017C41.0017 42.511 41.0017 41.8776 41.3924 41.487C41.783 41.0963 42.4164 41.0963 42.8071 41.487L44.6524 43.3323C45.0431 43.723 45.0431 44.3563 44.6524 44.747C44.4564 44.943 44.2004 45.0403 43.9444 45.0403Z" fill="white"/>
<path d="M22.7308 45.0403C22.4748 45.0403 22.2188 44.943 22.0241 44.747C21.6335 44.3563 21.6335 43.723 22.0241 43.3323L23.8695 41.487C24.2602 41.0963 24.8935 41.0963 25.2842 41.487C25.6749 41.8776 25.6749 42.511 25.2842 42.9017L23.4388 44.747C23.2428 44.943 22.9868 45.0403 22.7308 45.0403Z" fill="white"/>
<path d="M20.9468 34.4336H18.3374C17.7854 34.4336 17.3374 33.9856 17.3374 33.4336C17.3374 32.8816 17.7854 32.4336 18.3374 32.4336H20.9468C21.4988 32.4336 21.9468 32.8816 21.9468 33.4336C21.9468 33.9856 21.4988 34.4336 20.9468 34.4336Z" fill="white"/>
<path d="M24.5762 25.6719C24.3202 25.6719 24.0642 25.5746 23.8695 25.3786L22.0241 23.5332C21.6335 23.1426 21.6335 22.5092 22.0241 22.1186C22.4148 21.7279 23.0482 21.7279 23.4388 22.1186L25.2842 23.9639C25.6749 24.3546 25.6749 24.9879 25.2842 25.3786C25.0868 25.5733 24.8322 25.6719 24.5762 25.6719Z" fill="white"/>
<path d="M37.3377 45.4336V47.1003C37.3377 48.3803 36.2843 49.4336 35.0043 49.4336H31.6709C30.5509 49.4336 29.3376 48.5803 29.3376 46.7136V45.4336H37.3377Z" fill="white"/>
<path d="M39.2177 26.1801C37.031 24.4068 34.151 23.7134 31.3376 24.3134C27.8042 25.0468 24.9375 27.9268 24.2042 31.4602C23.4575 35.0869 24.8175 38.6869 27.7242 40.887C28.5109 41.4736 29.0576 42.3803 29.2442 43.4337V43.447C29.2709 43.4337 29.3109 43.4337 29.3376 43.4337H37.3377C37.3643 43.4337 37.3777 43.4337 37.4043 43.447V43.4337C37.591 42.4203 38.191 41.487 39.111 40.767C41.3644 38.9803 42.6711 36.3136 42.6711 33.4335C42.6711 30.6068 41.4177 27.9668 39.2177 26.1801ZM32.8376 33.1002H33.8376C35.4003 33.1002 36.671 34.3709 36.671 35.9336C36.671 37.3243 35.6616 38.4789 34.3376 38.7163V40.4336C34.3376 40.9856 33.8896 41.4336 33.3376 41.4336C32.7856 41.4336 32.3376 40.9856 32.3376 40.4336V38.7669H31.0043C30.4523 38.7669 30.0042 38.3189 30.0042 37.7669C30.0042 37.2149 30.4523 36.7669 31.0043 36.7669H33.8376C34.2976 36.7669 34.671 36.3936 34.671 35.9336C34.671 35.4736 34.2976 35.1002 33.8376 35.1002H32.8376C31.2749 35.1002 30.0042 33.8296 30.0042 32.2669C30.0042 30.8762 31.0136 29.7215 32.3376 29.4842V27.7668C32.3376 27.2148 32.7856 26.7668 33.3376 26.7668C33.8896 26.7668 34.3376 27.2148 34.3376 27.7668V29.4335H35.671C36.223 29.4335 36.671 29.8815 36.671 30.4335C36.671 30.9855 36.223 31.4335 35.671 31.4335H32.8376C32.3776 31.4335 32.0043 31.8069 32.0043 32.2669C32.0043 32.7269 32.3776 33.1002 32.8376 33.1002Z" fill="white"/>
<path d="M29.2442 43.4336H29.3381C29.3113 43.4336 29.271 43.4336 29.2442 43.447V43.4336Z" fill="white"/>
<path d="M37.4047 43.4336V43.447C37.3779 43.4336 37.3645 43.4336 37.3377 43.4336H37.4047Z" fill="white"/>
</g>
<defs>
<clipPath id="clip0_54_113">
<rect width="32.0004" height="32.0004" fill="white" transform="translate(17.3374 17.4332)"/>
</clipPath>
</defs>
</svg>
