<svg width="24" height="25" viewBox="0 0 24 25" fill="none" xmlns="http://www.w3.org/2000/svg">
<path fill-rule="evenodd" clip-rule="evenodd" d="M1.5 4.61768C1.5 2.96082 2.84315 1.61768 4.5 1.61768H5.87163C6.732 1.61768 7.48197 2.20323 7.69064 3.03792L8.79644 7.46111C8.97941 8.19298 8.70594 8.96322 8.10242 9.41586L6.8088 10.3861C6.67447 10.4868 6.64527 10.6344 6.683 10.7374C7.81851 13.8372 10.2805 16.2992 13.3803 17.4347C13.4833 17.4724 13.6309 17.4432 13.7316 17.3089L14.7018 16.0153C15.1545 15.4117 15.9247 15.1383 16.6566 15.3212L21.0798 16.427C21.9144 16.6357 22.5 17.3857 22.5 18.246V19.6177C22.5 21.2745 21.1569 22.6177 19.5 22.6177H17.25C8.55151 22.6177 1.5 15.5662 1.5 6.86768V4.61768Z" fill="white"/>
</svg>
