<svg width="29" height="30" viewBox="0 0 29 30" fill="none" xmlns="http://www.w3.org/2000/svg">
<path d="M13.0521 2.47064C13.9288 2.15157 14.8898 2.15157 15.7665 2.47064L21.5077 4.56026C22.3843 4.87933 23.1205 5.49708 23.587 6.30501L26.6418 11.5961C27.1082 12.404 27.2751 13.3505 27.1131 14.2692L26.0522 20.286C25.8902 21.2048 25.4097 22.037 24.695 22.6367L20.0148 26.5639C19.3001 27.1636 18.397 27.4923 17.4641 27.4923H11.3545C10.4216 27.4923 9.51851 27.1636 8.80386 26.5639L4.12361 22.6367L3.38422 23.5179L4.12361 22.6367C3.40896 22.037 2.92844 21.2048 2.76644 20.286L1.70551 14.2692C1.54351 13.3505 1.7104 12.404 2.17685 11.5961L5.23167 6.30501C5.69812 5.49708 6.43433 4.87933 7.31098 4.56026L13.0521 2.47064Z" fill="#189264" stroke="#33AD7F" stroke-width="2.30057"/>
<path fill-rule="evenodd" clip-rule="evenodd" d="M17.8259 11.6455C17.9869 11.4859 18.2042 11.3961 18.4308 11.3955C18.6575 11.3949 18.8753 11.4835 19.0372 11.6422C19.199 11.8009 19.2919 12.0169 19.2958 12.2435C19.2997 12.4702 19.2142 12.6892 19.0578 12.8533L14.4659 18.5932C14.387 18.6782 14.2917 18.7465 14.1858 18.7938C14.0799 18.8412 13.9656 18.8667 13.8496 18.8688C13.7337 18.871 13.6184 18.8497 13.5109 18.8063C13.4033 18.7629 13.3056 18.6983 13.2236 18.6162L10.1811 15.5726C10.0963 15.4936 10.0283 15.3984 9.98118 15.2925C9.93403 15.1867 9.90867 15.0725 9.90663 14.9566C9.90458 14.8408 9.92589 14.7257 9.96928 14.6183C10.0127 14.5109 10.0773 14.4133 10.1592 14.3314C10.2411 14.2495 10.3387 14.1849 10.4461 14.1415C10.5535 14.0981 10.6686 14.0768 10.7844 14.0788C10.9003 14.0809 11.0145 14.1062 11.1203 14.1534C11.2262 14.2005 11.3214 14.2685 11.4004 14.3533L13.8091 16.7608L17.804 11.6708C17.8111 11.6619 17.8188 11.6535 17.827 11.6455H17.8259Z" fill="white"/>
</svg>
