<svg width="41" height="41" viewBox="0 0 41 41" fill="none" xmlns="http://www.w3.org/2000/svg">
<rect x="0.0673828" y="0.0673523" width="40.6943" height="40.6943" rx="10.1736" fill="white"/>
<path d="M11.8035 17.508H29.0258M15.6173 11.7434L20.4147 17.508L25.2202 11.7474M28.8307 17.0517L25.4893 12.0397C25.4052 11.9135 25.3631 11.8504 25.3076 11.8047C25.2584 11.7642 25.2017 11.7339 25.1407 11.7154C25.0719 11.6945 24.9961 11.6945 24.8444 11.6945H15.9849C15.8333 11.6945 15.7574 11.6945 15.6886 11.7154C15.6277 11.7339 15.571 11.7642 15.5218 11.8047C15.4662 11.8504 15.4241 11.9135 15.34 12.0397L11.9987 17.0517C11.8891 17.2159 11.8344 17.2981 11.8147 17.3865C11.7974 17.4645 11.7997 17.5456 11.8213 17.6226C11.8458 17.7098 11.905 17.7887 12.0235 17.9467L19.7946 28.3081C20.0049 28.5886 20.1101 28.7288 20.2391 28.779C20.352 28.8229 20.4773 28.8229 20.5903 28.779C20.7192 28.7288 20.8244 28.5886 21.0348 28.3081L28.8058 17.9467C28.9243 17.7887 28.9835 17.7098 29.008 17.6226C29.0297 17.5456 29.0319 17.4645 29.0146 17.3865C28.995 17.2981 28.9402 17.2159 28.8307 17.0517Z" stroke="#007C4D" stroke-width="1.45337" stroke-linecap="round" stroke-linejoin="round"/>
</svg>
