<svg width="366" height="132" viewBox="0 0 366 132" fill="none" xmlns="http://www.w3.org/2000/svg">
<g filter="url(#filter0_d_114_643)">
<rect x="37.5005" y="34.1794" width="291.373" height="57.1682" rx="7.37654" fill="#3879EA" shape-rendering="crispEdges"/>
<path d="M157.6 53.6675V62.5332H148.84V54.9187L157.6 53.6675ZM147.457 55.495V62.5332H139.62V56.7841L147.457 55.495ZM139.62 63.9163H147.457V70.9009L139.62 70.154V63.9163ZM148.84 63.9163H157.6V71.8617L148.84 70.5846V63.9163Z" fill="white"/>
<path d="M172.27 69.7634L168.25 56.2828H170.702L172.842 63.4012C173.044 64.1388 173.247 64.8949 173.45 66.0752C173.671 64.8765 173.874 64.1757 174.114 63.4012L176.235 56.2828H178.835L180.919 63.4012C181.14 64.1573 181.343 64.9318 181.564 66.0752C181.822 64.8211 182.007 64.1019 182.21 63.4196L184.386 56.2828H186.783L182.689 69.7634H180.402L177.526 59.9526L174.593 69.7634H172.27ZM189.349 58.8277C188.575 58.8277 187.966 58.2191 187.966 57.463C187.966 56.707 188.575 56.1168 189.349 56.1168C190.087 56.1168 190.696 56.707 190.696 57.463C190.696 58.2191 190.087 58.8277 189.349 58.8277ZM188.225 69.7634V60.6534H190.474V69.7634H188.225ZM195.049 69.7634H192.799V60.6534H194.883L195.067 61.8336C195.639 60.9116 196.745 60.3768 197.981 60.3768C200.268 60.3768 201.448 61.7968 201.448 64.1573V69.7634H199.198V64.6921C199.198 63.1614 198.442 62.4238 197.28 62.4238C195.897 62.4238 195.049 63.3827 195.049 64.858V69.7634ZM207.402 70.0032C204.765 70.0032 203.124 68.0668 203.124 65.2453C203.124 62.4053 204.783 60.3768 207.531 60.3768C208.803 60.3768 209.928 60.9116 210.5 61.8152V56.0431H212.731V69.7634H210.666L210.519 68.3434C209.965 69.3946 208.785 70.0032 207.402 70.0032ZM207.9 67.9377C209.467 67.9377 210.482 66.8128 210.482 65.1715C210.482 63.5303 209.467 62.3869 207.9 62.3869C206.332 62.3869 205.373 63.5487 205.373 65.1715C205.373 66.7944 206.332 67.9377 207.9 67.9377ZM214.541 65.19C214.541 62.35 216.588 60.3952 219.41 60.3952C222.231 60.3952 224.278 62.35 224.278 65.19C224.278 68.0299 222.231 69.9847 219.41 69.9847C216.588 69.9847 214.541 68.0299 214.541 65.19ZM216.791 65.19C216.791 66.8497 217.861 67.9746 219.41 67.9746C220.959 67.9746 222.028 66.8497 222.028 65.19C222.028 63.5303 220.959 62.4053 219.41 62.4053C217.861 62.4053 216.791 63.5303 216.791 65.19ZM227.622 69.7634L224.671 60.6534H227.013L228.212 64.563C228.415 65.2822 228.599 66.0752 228.765 66.9235C228.931 66.0383 229.097 65.4666 229.392 64.563L230.646 60.6534H232.933L234.15 64.563C234.26 64.9318 234.629 66.2965 234.74 66.905C234.887 66.2227 235.183 65.1346 235.348 64.563L236.566 60.6534H238.945L235.791 69.7634H233.689L232.435 65.817C232.066 64.6183 231.863 63.7515 231.789 63.2905C231.697 63.7147 231.531 64.3601 231.07 65.8539L229.816 69.7634H227.622ZM239.408 66.9972H241.547C241.566 67.7902 242.156 68.2881 243.189 68.2881C244.24 68.2881 244.811 67.864 244.811 67.2001C244.811 66.739 244.572 66.4071 243.76 66.2227L242.119 65.8354C240.478 65.4666 239.685 64.6921 239.685 63.2352C239.685 61.4464 241.197 60.3768 243.299 60.3768C245.346 60.3768 246.729 61.557 246.748 63.3274H244.608C244.59 62.5529 244.074 62.0549 243.207 62.0549C242.322 62.0549 241.805 62.4607 241.805 63.143C241.805 63.6593 242.211 63.9913 242.986 64.1757L244.627 64.563C246.158 64.9134 246.932 65.6141 246.932 67.0157C246.932 68.8598 245.365 70.0032 243.115 70.0032C240.846 70.0032 239.408 68.786 239.408 66.9972Z" fill="white"/>
</g>
<defs>
<filter id="filter0_d_114_643" x="0.617798" y="0.985022" width="365.139" height="130.934" filterUnits="userSpaceOnUse" color-interpolation-filters="sRGB">
<feFlood flood-opacity="0" result="BackgroundImageFix"/>
<feColorMatrix in="SourceAlpha" type="matrix" values="0 0 0 0 0 0 0 0 0 0 0 0 0 0 0 0 0 0 127 0" result="hardAlpha"/>
<feOffset dy="3.68827"/>
<feGaussianBlur stdDeviation="18.4413"/>
<feComposite in2="hardAlpha" operator="out"/>
<feColorMatrix type="matrix" values="0 0 0 0 0 0 0 0 0 0 0 0 0 0 0 0 0 0 0.1 0"/>
<feBlend mode="normal" in2="BackgroundImageFix" result="effect1_dropShadow_114_643"/>
<feBlend mode="normal" in="SourceGraphic" in2="effect1_dropShadow_114_643" result="shape"/>
</filter>
</defs>
</svg>
